<mxfile host="app.diagrams.net" modified="2021-04-29T19:44:33.677Z" agent="5.0 (Windows NT 10.0; Win64; x64) AppleWebKit/537.36 (KHTML, like Gecko) Chrome/90.0.4430.85 Safari/537.36 Edg/90.0.818.46" etag="MDzyiw_B5uugqBR4AqGs" version="14.6.6" type="github">
  <diagram id="C5RBs43oDa-KdzZeNtuy" name="Page-1">
    <mxGraphModel dx="1657" dy="896" grid="1" gridSize="10" guides="1" tooltips="1" connect="1" arrows="1" fold="1" page="1" pageScale="1" pageWidth="827" pageHeight="1169" math="0" shadow="0">
      <root>
        <mxCell id="WIyWlLk6GJQsqaUBKTNV-0" />
        <mxCell id="WIyWlLk6GJQsqaUBKTNV-1" parent="WIyWlLk6GJQsqaUBKTNV-0" />
        <mxCell id="l0oDYleAhtw5hOrFRe71-48" value="" style="endArrow=none;dashed=1;html=1;dashPattern=1 3;strokeWidth=2;entryX=0.5;entryY=1;entryDx=0;entryDy=0;exitX=0.5;exitY=0;exitDx=0;exitDy=0;" edge="1" parent="WIyWlLk6GJQsqaUBKTNV-1" source="l0oDYleAhtw5hOrFRe71-52" target="l0oDYleAhtw5hOrFRe71-49">
          <mxGeometry width="50" height="50" relative="1" as="geometry">
            <mxPoint x="545" y="160" as="sourcePoint" />
            <mxPoint x="545" y="100" as="targetPoint" />
          </mxGeometry>
        </mxCell>
        <mxCell id="l0oDYleAhtw5hOrFRe71-49" value="&lt;i&gt;Prozess der Terminvereinbarung&lt;/i&gt;" style="rounded=0;whiteSpace=wrap;html=1;dashed=1;" vertex="1" parent="WIyWlLk6GJQsqaUBKTNV-1">
          <mxGeometry x="485" y="40" width="120" height="60" as="geometry" />
        </mxCell>
        <mxCell id="l0oDYleAhtw5hOrFRe71-50" value="" style="edgeStyle=orthogonalEdgeStyle;rounded=0;orthogonalLoop=1;jettySize=auto;html=1;" edge="1" parent="WIyWlLk6GJQsqaUBKTNV-1" source="l0oDYleAhtw5hOrFRe71-51" target="l0oDYleAhtw5hOrFRe71-55">
          <mxGeometry relative="1" as="geometry" />
        </mxCell>
        <mxCell id="l0oDYleAhtw5hOrFRe71-51" value="&quot;Termin buchen&quot; - Button dücken" style="rounded=1;whiteSpace=wrap;html=1;" vertex="1" parent="WIyWlLk6GJQsqaUBKTNV-1">
          <mxGeometry x="485" y="240" width="120" height="60" as="geometry" />
        </mxCell>
        <mxCell id="l0oDYleAhtw5hOrFRe71-52" value="Auf Ummeldungsseite" style="shape=hexagon;perimeter=hexagonPerimeter2;whiteSpace=wrap;html=1;fixedSize=1;" vertex="1" parent="WIyWlLk6GJQsqaUBKTNV-1">
          <mxGeometry x="475" y="140" width="140" height="60" as="geometry" />
        </mxCell>
        <mxCell id="l0oDYleAhtw5hOrFRe71-53" value="" style="endArrow=classic;html=1;exitX=0.5;exitY=1;exitDx=0;exitDy=0;entryX=0.5;entryY=0;entryDx=0;entryDy=0;" edge="1" parent="WIyWlLk6GJQsqaUBKTNV-1" source="l0oDYleAhtw5hOrFRe71-52" target="l0oDYleAhtw5hOrFRe71-51">
          <mxGeometry width="50" height="50" relative="1" as="geometry">
            <mxPoint x="535" y="260" as="sourcePoint" />
            <mxPoint x="585" y="210" as="targetPoint" />
          </mxGeometry>
        </mxCell>
        <mxCell id="l0oDYleAhtw5hOrFRe71-54" value="" style="edgeStyle=orthogonalEdgeStyle;rounded=0;orthogonalLoop=1;jettySize=auto;html=1;" edge="1" parent="WIyWlLk6GJQsqaUBKTNV-1" source="l0oDYleAhtw5hOrFRe71-55" target="l0oDYleAhtw5hOrFRe71-57">
          <mxGeometry relative="1" as="geometry" />
        </mxCell>
        <mxCell id="l0oDYleAhtw5hOrFRe71-55" value="Button gedrückt" style="shape=hexagon;perimeter=hexagonPerimeter2;whiteSpace=wrap;html=1;fixedSize=1;" vertex="1" parent="WIyWlLk6GJQsqaUBKTNV-1">
          <mxGeometry x="485" y="340" width="120" height="60" as="geometry" />
        </mxCell>
        <mxCell id="l0oDYleAhtw5hOrFRe71-56" value="" style="edgeStyle=orthogonalEdgeStyle;rounded=0;orthogonalLoop=1;jettySize=auto;html=1;" edge="1" parent="WIyWlLk6GJQsqaUBKTNV-1" source="l0oDYleAhtw5hOrFRe71-57" target="l0oDYleAhtw5hOrFRe71-59">
          <mxGeometry relative="1" as="geometry" />
        </mxCell>
        <mxCell id="l0oDYleAhtw5hOrFRe71-57" value="Terminvereinbarungs Seite öffnet sich" style="rounded=1;whiteSpace=wrap;html=1;" vertex="1" parent="WIyWlLk6GJQsqaUBKTNV-1">
          <mxGeometry x="485" y="440" width="120" height="60" as="geometry" />
        </mxCell>
        <mxCell id="l0oDYleAhtw5hOrFRe71-58" value="" style="edgeStyle=orthogonalEdgeStyle;rounded=0;orthogonalLoop=1;jettySize=auto;html=1;" edge="1" parent="WIyWlLk6GJQsqaUBKTNV-1" source="l0oDYleAhtw5hOrFRe71-59" target="l0oDYleAhtw5hOrFRe71-61">
          <mxGeometry relative="1" as="geometry" />
        </mxCell>
        <mxCell id="l0oDYleAhtw5hOrFRe71-59" value="Termin Seite offen" style="shape=hexagon;perimeter=hexagonPerimeter2;whiteSpace=wrap;html=1;fixedSize=1;" vertex="1" parent="WIyWlLk6GJQsqaUBKTNV-1">
          <mxGeometry x="485" y="550" width="120" height="80" as="geometry" />
        </mxCell>
        <mxCell id="l0oDYleAhtw5hOrFRe71-60" value="" style="edgeStyle=orthogonalEdgeStyle;rounded=0;orthogonalLoop=1;jettySize=auto;html=1;" edge="1" parent="WIyWlLk6GJQsqaUBKTNV-1" source="l0oDYleAhtw5hOrFRe71-61" target="l0oDYleAhtw5hOrFRe71-63">
          <mxGeometry relative="1" as="geometry" />
        </mxCell>
        <mxCell id="l0oDYleAhtw5hOrFRe71-61" value="Gründe zur Ummeldung werden aufgelistet" style="rounded=1;whiteSpace=wrap;html=1;" vertex="1" parent="WIyWlLk6GJQsqaUBKTNV-1">
          <mxGeometry x="485" y="670" width="120" height="60" as="geometry" />
        </mxCell>
        <mxCell id="l0oDYleAhtw5hOrFRe71-62" value="" style="edgeStyle=orthogonalEdgeStyle;rounded=0;orthogonalLoop=1;jettySize=auto;html=1;" edge="1" parent="WIyWlLk6GJQsqaUBKTNV-1" source="l0oDYleAhtw5hOrFRe71-63" target="l0oDYleAhtw5hOrFRe71-65">
          <mxGeometry relative="1" as="geometry" />
        </mxCell>
        <mxCell id="l0oDYleAhtw5hOrFRe71-63" value="Gründe aufgeklappt" style="shape=hexagon;perimeter=hexagonPerimeter2;whiteSpace=wrap;html=1;fixedSize=1;" vertex="1" parent="WIyWlLk6GJQsqaUBKTNV-1">
          <mxGeometry x="485" y="770" width="120" height="80" as="geometry" />
        </mxCell>
        <mxCell id="l0oDYleAhtw5hOrFRe71-64" value="" style="edgeStyle=orthogonalEdgeStyle;rounded=0;orthogonalLoop=1;jettySize=auto;html=1;" edge="1" parent="WIyWlLk6GJQsqaUBKTNV-1" source="l0oDYleAhtw5hOrFRe71-65" target="l0oDYleAhtw5hOrFRe71-67">
          <mxGeometry relative="1" as="geometry" />
        </mxCell>
        <mxCell id="l0oDYleAhtw5hOrFRe71-65" value="Grund wird ausgewäht" style="rounded=1;whiteSpace=wrap;html=1;" vertex="1" parent="WIyWlLk6GJQsqaUBKTNV-1">
          <mxGeometry x="485" y="890" width="120" height="60" as="geometry" />
        </mxCell>
        <mxCell id="l0oDYleAhtw5hOrFRe71-66" value="" style="edgeStyle=orthogonalEdgeStyle;rounded=0;orthogonalLoop=1;jettySize=auto;html=1;entryX=0.5;entryY=0;entryDx=0;entryDy=0;" edge="1" parent="WIyWlLk6GJQsqaUBKTNV-1" source="l0oDYleAhtw5hOrFRe71-67" target="l0oDYleAhtw5hOrFRe71-73">
          <mxGeometry relative="1" as="geometry">
            <mxPoint x="545" y="1160" as="targetPoint" />
          </mxGeometry>
        </mxCell>
        <mxCell id="l0oDYleAhtw5hOrFRe71-67" value="Grund ausgewählt" style="shape=hexagon;perimeter=hexagonPerimeter2;whiteSpace=wrap;html=1;fixedSize=1;" vertex="1" parent="WIyWlLk6GJQsqaUBKTNV-1">
          <mxGeometry x="485" y="990" width="120" height="80" as="geometry" />
        </mxCell>
        <mxCell id="l0oDYleAhtw5hOrFRe71-68" value="Die verschiedenen Gründe, stehen im dazugehörigem Word-Dokument" style="text;html=1;strokeColor=none;fillColor=none;align=center;verticalAlign=middle;whiteSpace=wrap;rounded=0;dashed=1;" vertex="1" parent="WIyWlLk6GJQsqaUBKTNV-1">
          <mxGeometry x="665" y="910" width="160" height="20" as="geometry" />
        </mxCell>
        <mxCell id="l0oDYleAhtw5hOrFRe71-69" value="" style="endArrow=classic;html=1;exitX=0;exitY=0.5;exitDx=0;exitDy=0;entryX=1;entryY=0.5;entryDx=0;entryDy=0;rounded=0;dashed=1;" edge="1" parent="WIyWlLk6GJQsqaUBKTNV-1" source="l0oDYleAhtw5hOrFRe71-68">
          <mxGeometry width="50" height="50" relative="1" as="geometry">
            <mxPoint x="685" y="800" as="sourcePoint" />
            <mxPoint x="605" y="920" as="targetPoint" />
            <Array as="points" />
          </mxGeometry>
        </mxCell>
        <mxCell id="l0oDYleAhtw5hOrFRe71-70" value="" style="edgeStyle=orthogonalEdgeStyle;rounded=0;orthogonalLoop=1;jettySize=auto;html=1;exitX=0.5;exitY=1;exitDx=0;exitDy=0;" edge="1" parent="WIyWlLk6GJQsqaUBKTNV-1" source="l0oDYleAhtw5hOrFRe71-73" target="l0oDYleAhtw5hOrFRe71-72">
          <mxGeometry relative="1" as="geometry">
            <mxPoint x="545" y="1220" as="sourcePoint" />
            <Array as="points" />
          </mxGeometry>
        </mxCell>
        <mxCell id="l0oDYleAhtw5hOrFRe71-71" value="" style="edgeStyle=orthogonalEdgeStyle;rounded=0;orthogonalLoop=1;jettySize=auto;html=1;" edge="1" parent="WIyWlLk6GJQsqaUBKTNV-1" source="l0oDYleAhtw5hOrFRe71-72" target="l0oDYleAhtw5hOrFRe71-79">
          <mxGeometry relative="1" as="geometry" />
        </mxCell>
        <mxCell id="l0oDYleAhtw5hOrFRe71-72" value="Grund bestätigt" style="shape=hexagon;perimeter=hexagonPerimeter2;whiteSpace=wrap;html=1;fixedSize=1;" vertex="1" parent="WIyWlLk6GJQsqaUBKTNV-1">
          <mxGeometry x="485" y="1219" width="120" height="80" as="geometry" />
        </mxCell>
        <mxCell id="l0oDYleAhtw5hOrFRe71-73" value="Grund bestätigen" style="rounded=1;whiteSpace=wrap;html=1;" vertex="1" parent="WIyWlLk6GJQsqaUBKTNV-1">
          <mxGeometry x="485" y="1120" width="120" height="60" as="geometry" />
        </mxCell>
        <mxCell id="l0oDYleAhtw5hOrFRe71-74" value="" style="edgeStyle=orthogonalEdgeStyle;rounded=0;orthogonalLoop=1;jettySize=auto;html=1;" edge="1" parent="WIyWlLk6GJQsqaUBKTNV-1" source="l0oDYleAhtw5hOrFRe71-76">
          <mxGeometry relative="1" as="geometry">
            <mxPoint x="685" y="1470" as="targetPoint" />
          </mxGeometry>
        </mxCell>
        <mxCell id="l0oDYleAhtw5hOrFRe71-75" value="" style="edgeStyle=orthogonalEdgeStyle;rounded=0;orthogonalLoop=1;jettySize=auto;html=1;" edge="1" parent="WIyWlLk6GJQsqaUBKTNV-1" source="l0oDYleAhtw5hOrFRe71-76">
          <mxGeometry relative="1" as="geometry">
            <mxPoint x="405" y="1470" as="targetPoint" />
          </mxGeometry>
        </mxCell>
        <mxCell id="l0oDYleAhtw5hOrFRe71-76" value="" style="rounded=1;whiteSpace=wrap;html=1;" vertex="1" parent="WIyWlLk6GJQsqaUBKTNV-1">
          <mxGeometry x="525" y="1450" width="40" height="40" as="geometry" />
        </mxCell>
        <mxCell id="l0oDYleAhtw5hOrFRe71-77" value="" style="shape=umlDestroy;whiteSpace=wrap;html=1;strokeWidth=3;rounded=1;" vertex="1" parent="WIyWlLk6GJQsqaUBKTNV-1">
          <mxGeometry x="530" y="1455" width="30" height="30" as="geometry" />
        </mxCell>
        <mxCell id="l0oDYleAhtw5hOrFRe71-78" value="" style="edgeStyle=orthogonalEdgeStyle;rounded=0;orthogonalLoop=1;jettySize=auto;html=1;" edge="1" parent="WIyWlLk6GJQsqaUBKTNV-1" source="l0oDYleAhtw5hOrFRe71-79">
          <mxGeometry relative="1" as="geometry">
            <mxPoint x="545" y="1450" as="targetPoint" />
          </mxGeometry>
        </mxCell>
        <mxCell id="l0oDYleAhtw5hOrFRe71-79" value="Es wird geschaut ob freie Termine frei sind" style="rounded=1;whiteSpace=wrap;html=1;" vertex="1" parent="WIyWlLk6GJQsqaUBKTNV-1">
          <mxGeometry x="485" y="1340" width="120" height="60" as="geometry" />
        </mxCell>
        <mxCell id="l0oDYleAhtw5hOrFRe71-80" value="" style="edgeStyle=orthogonalEdgeStyle;rounded=0;orthogonalLoop=1;jettySize=auto;html=1;" edge="1" parent="WIyWlLk6GJQsqaUBKTNV-1" source="l0oDYleAhtw5hOrFRe71-81" target="l0oDYleAhtw5hOrFRe71-85">
          <mxGeometry relative="1" as="geometry" />
        </mxCell>
        <mxCell id="l0oDYleAhtw5hOrFRe71-81" value="Termine frei" style="shape=hexagon;perimeter=hexagonPerimeter2;whiteSpace=wrap;html=1;fixedSize=1;" vertex="1" parent="WIyWlLk6GJQsqaUBKTNV-1">
          <mxGeometry x="285" y="1430" width="120" height="80" as="geometry" />
        </mxCell>
        <mxCell id="l0oDYleAhtw5hOrFRe71-82" value="" style="edgeStyle=orthogonalEdgeStyle;rounded=0;orthogonalLoop=1;jettySize=auto;html=1;" edge="1" parent="WIyWlLk6GJQsqaUBKTNV-1" source="l0oDYleAhtw5hOrFRe71-83" target="l0oDYleAhtw5hOrFRe71-87">
          <mxGeometry relative="1" as="geometry" />
        </mxCell>
        <mxCell id="l0oDYleAhtw5hOrFRe71-83" value="Termine alle vergriffen" style="shape=hexagon;perimeter=hexagonPerimeter2;whiteSpace=wrap;html=1;fixedSize=1;" vertex="1" parent="WIyWlLk6GJQsqaUBKTNV-1">
          <mxGeometry x="685" y="1430" width="120" height="80" as="geometry" />
        </mxCell>
        <mxCell id="l0oDYleAhtw5hOrFRe71-84" value="" style="edgeStyle=orthogonalEdgeStyle;rounded=0;orthogonalLoop=1;jettySize=auto;html=1;" edge="1" parent="WIyWlLk6GJQsqaUBKTNV-1" source="l0oDYleAhtw5hOrFRe71-85" target="l0oDYleAhtw5hOrFRe71-88">
          <mxGeometry relative="1" as="geometry" />
        </mxCell>
        <mxCell id="l0oDYleAhtw5hOrFRe71-85" value="freie Termine werden angezeigt" style="rounded=1;whiteSpace=wrap;html=1;" vertex="1" parent="WIyWlLk6GJQsqaUBKTNV-1">
          <mxGeometry x="285" y="1580" width="120" height="60" as="geometry" />
        </mxCell>
        <mxCell id="l0oDYleAhtw5hOrFRe71-86" value="" style="edgeStyle=orthogonalEdgeStyle;rounded=0;orthogonalLoop=1;jettySize=auto;html=1;" edge="1" parent="WIyWlLk6GJQsqaUBKTNV-1" source="l0oDYleAhtw5hOrFRe71-87" target="l0oDYleAhtw5hOrFRe71-90">
          <mxGeometry relative="1" as="geometry" />
        </mxCell>
        <mxCell id="l0oDYleAhtw5hOrFRe71-87" value="Anzeige wird erscheinen mit: &quot;Leider sind momentan keine Termine frei. Schauen Si egerne morgen nochmal vorbei, unsere Termine werden täglich für die nächsten 30 Tage aktualisiert" style="rounded=1;whiteSpace=wrap;html=1;" vertex="1" parent="WIyWlLk6GJQsqaUBKTNV-1">
          <mxGeometry x="685" y="1580" width="120" height="170" as="geometry" />
        </mxCell>
        <mxCell id="l0oDYleAhtw5hOrFRe71-100" value="" style="edgeStyle=orthogonalEdgeStyle;rounded=0;orthogonalLoop=1;jettySize=auto;html=1;" edge="1" parent="WIyWlLk6GJQsqaUBKTNV-1" source="l0oDYleAhtw5hOrFRe71-88" target="l0oDYleAhtw5hOrFRe71-98">
          <mxGeometry relative="1" as="geometry" />
        </mxCell>
        <mxCell id="l0oDYleAhtw5hOrFRe71-88" value="Termin ausgewählt" style="shape=hexagon;perimeter=hexagonPerimeter2;whiteSpace=wrap;html=1;fixedSize=1;" vertex="1" parent="WIyWlLk6GJQsqaUBKTNV-1">
          <mxGeometry x="285" y="1710" width="120" height="80" as="geometry" />
        </mxCell>
        <mxCell id="l0oDYleAhtw5hOrFRe71-89" value="" style="edgeStyle=orthogonalEdgeStyle;rounded=0;orthogonalLoop=1;jettySize=auto;html=1;" edge="1" parent="WIyWlLk6GJQsqaUBKTNV-1" source="l0oDYleAhtw5hOrFRe71-90" target="l0oDYleAhtw5hOrFRe71-92">
          <mxGeometry relative="1" as="geometry" />
        </mxCell>
        <mxCell id="l0oDYleAhtw5hOrFRe71-90" value="Anzeige erscheint" style="shape=hexagon;perimeter=hexagonPerimeter2;whiteSpace=wrap;html=1;fixedSize=1;" vertex="1" parent="WIyWlLk6GJQsqaUBKTNV-1">
          <mxGeometry x="685" y="1820" width="120" height="80" as="geometry" />
        </mxCell>
        <mxCell id="l0oDYleAhtw5hOrFRe71-91" value="" style="edgeStyle=orthogonalEdgeStyle;rounded=0;orthogonalLoop=1;jettySize=auto;html=1;" edge="1" parent="WIyWlLk6GJQsqaUBKTNV-1" source="l0oDYleAhtw5hOrFRe71-92" target="l0oDYleAhtw5hOrFRe71-94">
          <mxGeometry relative="1" as="geometry" />
        </mxCell>
        <mxCell id="l0oDYleAhtw5hOrFRe71-92" value="Button mit &quot;Zurück zu Ummeldungs Informationen&quot; wird erscheinen" style="rounded=1;whiteSpace=wrap;html=1;" vertex="1" parent="WIyWlLk6GJQsqaUBKTNV-1">
          <mxGeometry x="685" y="1960" width="120" height="60" as="geometry" />
        </mxCell>
        <mxCell id="l0oDYleAhtw5hOrFRe71-93" value="" style="edgeStyle=orthogonalEdgeStyle;rounded=0;orthogonalLoop=1;jettySize=auto;html=1;" edge="1" parent="WIyWlLk6GJQsqaUBKTNV-1" source="l0oDYleAhtw5hOrFRe71-94" target="l0oDYleAhtw5hOrFRe71-95">
          <mxGeometry relative="1" as="geometry" />
        </mxCell>
        <mxCell id="l0oDYleAhtw5hOrFRe71-94" value="Button erscheint" style="shape=hexagon;perimeter=hexagonPerimeter2;whiteSpace=wrap;html=1;fixedSize=1;" vertex="1" parent="WIyWlLk6GJQsqaUBKTNV-1">
          <mxGeometry x="685" y="2080" width="120" height="80" as="geometry" />
        </mxCell>
        <mxCell id="l0oDYleAhtw5hOrFRe71-97" value="" style="edgeStyle=orthogonalEdgeStyle;rounded=0;orthogonalLoop=1;jettySize=auto;html=1;" edge="1" parent="WIyWlLk6GJQsqaUBKTNV-1" source="l0oDYleAhtw5hOrFRe71-95" target="l0oDYleAhtw5hOrFRe71-96">
          <mxGeometry relative="1" as="geometry" />
        </mxCell>
        <mxCell id="l0oDYleAhtw5hOrFRe71-95" value="Kunde wird zur Ummeldungsseite weitergeleitet" style="rounded=1;whiteSpace=wrap;html=1;" vertex="1" parent="WIyWlLk6GJQsqaUBKTNV-1">
          <mxGeometry x="685" y="2220" width="120" height="60" as="geometry" />
        </mxCell>
        <mxCell id="l0oDYleAhtw5hOrFRe71-96" value="Zurück auf Ummeldungsseite" style="shape=hexagon;perimeter=hexagonPerimeter2;whiteSpace=wrap;html=1;fixedSize=1;" vertex="1" parent="WIyWlLk6GJQsqaUBKTNV-1">
          <mxGeometry x="685" y="2320" width="120" height="80" as="geometry" />
        </mxCell>
        <mxCell id="l0oDYleAhtw5hOrFRe71-102" value="" style="edgeStyle=orthogonalEdgeStyle;rounded=0;orthogonalLoop=1;jettySize=auto;html=1;" edge="1" parent="WIyWlLk6GJQsqaUBKTNV-1" source="l0oDYleAhtw5hOrFRe71-98" target="l0oDYleAhtw5hOrFRe71-101">
          <mxGeometry relative="1" as="geometry" />
        </mxCell>
        <mxCell id="l0oDYleAhtw5hOrFRe71-98" value="Uhrzeiten klappen auf" style="rounded=1;whiteSpace=wrap;html=1;" vertex="1" parent="WIyWlLk6GJQsqaUBKTNV-1">
          <mxGeometry x="285" y="1830" width="120" height="60" as="geometry" />
        </mxCell>
        <mxCell id="l0oDYleAhtw5hOrFRe71-105" value="" style="edgeStyle=orthogonalEdgeStyle;rounded=0;orthogonalLoop=1;jettySize=auto;html=1;" edge="1" parent="WIyWlLk6GJQsqaUBKTNV-1" source="l0oDYleAhtw5hOrFRe71-101" target="l0oDYleAhtw5hOrFRe71-104">
          <mxGeometry relative="1" as="geometry" />
        </mxCell>
        <mxCell id="l0oDYleAhtw5hOrFRe71-101" value="Uhrzeit ausgeklappt und anwählbar" style="shape=hexagon;perimeter=hexagonPerimeter2;whiteSpace=wrap;html=1;fixedSize=1;" vertex="1" parent="WIyWlLk6GJQsqaUBKTNV-1">
          <mxGeometry x="285" y="2410" width="120" height="80" as="geometry" />
        </mxCell>
        <mxCell id="l0oDYleAhtw5hOrFRe71-103" value="ENDE" style="text;html=1;strokeColor=none;fillColor=none;align=center;verticalAlign=middle;whiteSpace=wrap;rounded=0;" vertex="1" parent="WIyWlLk6GJQsqaUBKTNV-1">
          <mxGeometry x="725" y="2410" width="40" height="20" as="geometry" />
        </mxCell>
        <mxCell id="l0oDYleAhtw5hOrFRe71-114" value="" style="edgeStyle=orthogonalEdgeStyle;rounded=0;orthogonalLoop=1;jettySize=auto;html=1;" edge="1" parent="WIyWlLk6GJQsqaUBKTNV-1" source="l0oDYleAhtw5hOrFRe71-104" target="l0oDYleAhtw5hOrFRe71-111">
          <mxGeometry relative="1" as="geometry" />
        </mxCell>
        <mxCell id="l0oDYleAhtw5hOrFRe71-104" value="beim Klicken auf Uhrzeit öffnet sich das Feld um persönliche Daten eintragen zu können" style="rounded=1;whiteSpace=wrap;html=1;" vertex="1" parent="WIyWlLk6GJQsqaUBKTNV-1">
          <mxGeometry x="285" y="2540" width="120" height="70" as="geometry" />
        </mxCell>
        <mxCell id="l0oDYleAhtw5hOrFRe71-108" value="" style="edgeStyle=orthogonalEdgeStyle;rounded=0;orthogonalLoop=1;jettySize=auto;html=1;" edge="1" parent="WIyWlLk6GJQsqaUBKTNV-1" source="l0oDYleAhtw5hOrFRe71-110">
          <mxGeometry relative="1" as="geometry">
            <mxPoint x="485" y="2690" as="targetPoint" />
          </mxGeometry>
        </mxCell>
        <mxCell id="l0oDYleAhtw5hOrFRe71-109" value="" style="edgeStyle=orthogonalEdgeStyle;rounded=0;orthogonalLoop=1;jettySize=auto;html=1;" edge="1" parent="WIyWlLk6GJQsqaUBKTNV-1" source="l0oDYleAhtw5hOrFRe71-110">
          <mxGeometry relative="1" as="geometry">
            <mxPoint x="205" y="2690" as="targetPoint" />
          </mxGeometry>
        </mxCell>
        <mxCell id="l0oDYleAhtw5hOrFRe71-110" value="" style="rounded=1;whiteSpace=wrap;html=1;" vertex="1" parent="WIyWlLk6GJQsqaUBKTNV-1">
          <mxGeometry x="325" y="2670" width="40" height="40" as="geometry" />
        </mxCell>
        <mxCell id="l0oDYleAhtw5hOrFRe71-111" value="" style="shape=umlDestroy;whiteSpace=wrap;html=1;strokeWidth=3;rounded=1;" vertex="1" parent="WIyWlLk6GJQsqaUBKTNV-1">
          <mxGeometry x="330" y="2675" width="30" height="30" as="geometry" />
        </mxCell>
        <mxCell id="l0oDYleAhtw5hOrFRe71-118" value="" style="edgeStyle=orthogonalEdgeStyle;rounded=0;orthogonalLoop=1;jettySize=auto;html=1;" edge="1" parent="WIyWlLk6GJQsqaUBKTNV-1">
          <mxGeometry relative="1" as="geometry">
            <mxPoint x="145" y="2730" as="sourcePoint" />
            <mxPoint x="145" y="2790" as="targetPoint" />
          </mxGeometry>
        </mxCell>
        <mxCell id="l0oDYleAhtw5hOrFRe71-112" value="Davor schon eingeloggt" style="shape=hexagon;perimeter=hexagonPerimeter2;whiteSpace=wrap;html=1;fixedSize=1;" vertex="1" parent="WIyWlLk6GJQsqaUBKTNV-1">
          <mxGeometry x="85" y="2650" width="120" height="80" as="geometry" />
        </mxCell>
        <mxCell id="l0oDYleAhtw5hOrFRe71-117" value="" style="edgeStyle=orthogonalEdgeStyle;rounded=0;orthogonalLoop=1;jettySize=auto;html=1;" edge="1" parent="WIyWlLk6GJQsqaUBKTNV-1" source="l0oDYleAhtw5hOrFRe71-113" target="l0oDYleAhtw5hOrFRe71-116">
          <mxGeometry relative="1" as="geometry" />
        </mxCell>
        <mxCell id="l0oDYleAhtw5hOrFRe71-113" value="Davor noch nicht eingeloggt" style="shape=hexagon;perimeter=hexagonPerimeter2;whiteSpace=wrap;html=1;fixedSize=1;" vertex="1" parent="WIyWlLk6GJQsqaUBKTNV-1">
          <mxGeometry x="485" y="2650" width="120" height="80" as="geometry" />
        </mxCell>
        <mxCell id="l0oDYleAhtw5hOrFRe71-120" value="" style="edgeStyle=orthogonalEdgeStyle;rounded=0;orthogonalLoop=1;jettySize=auto;html=1;" edge="1" parent="WIyWlLk6GJQsqaUBKTNV-1">
          <mxGeometry relative="1" as="geometry">
            <mxPoint x="145" y="2850" as="sourcePoint" />
            <mxPoint x="145" y="2900" as="targetPoint" />
          </mxGeometry>
        </mxCell>
        <mxCell id="l0oDYleAhtw5hOrFRe71-115" value="persönliche Daten werden automatisch eingetragen" style="rounded=1;whiteSpace=wrap;html=1;" vertex="1" parent="WIyWlLk6GJQsqaUBKTNV-1">
          <mxGeometry x="85" y="2790" width="120" height="60" as="geometry" />
        </mxCell>
        <mxCell id="l0oDYleAhtw5hOrFRe71-116" value="Frage erscheint: &quot;Haben Sie ein Kundenkonto und wollen sich einloggen, damit Ihre Daten automatisch ausgefüllt werden?" style="rounded=1;whiteSpace=wrap;html=1;" vertex="1" parent="WIyWlLk6GJQsqaUBKTNV-1">
          <mxGeometry x="485" y="2790" width="120" height="100" as="geometry" />
        </mxCell>
        <mxCell id="l0oDYleAhtw5hOrFRe71-119" value="Persönliche Daten eingetragen" style="shape=hexagon;perimeter=hexagonPerimeter2;whiteSpace=wrap;html=1;fixedSize=1;" vertex="1" parent="WIyWlLk6GJQsqaUBKTNV-1">
          <mxGeometry x="85" y="2900" width="120" height="80" as="geometry" />
        </mxCell>
        <mxCell id="l0oDYleAhtw5hOrFRe71-121" value="" style="edgeStyle=orthogonalEdgeStyle;rounded=0;orthogonalLoop=1;jettySize=auto;html=1;" edge="1" parent="WIyWlLk6GJQsqaUBKTNV-1" target="l0oDYleAhtw5hOrFRe71-125">
          <mxGeometry relative="1" as="geometry">
            <mxPoint x="545" y="2890" as="sourcePoint" />
          </mxGeometry>
        </mxCell>
        <mxCell id="l0oDYleAhtw5hOrFRe71-122" value="" style="edgeStyle=orthogonalEdgeStyle;rounded=0;orthogonalLoop=1;jettySize=auto;html=1;" edge="1" parent="WIyWlLk6GJQsqaUBKTNV-1" source="l0oDYleAhtw5hOrFRe71-124">
          <mxGeometry relative="1" as="geometry">
            <mxPoint x="665" y="2970" as="targetPoint" />
          </mxGeometry>
        </mxCell>
        <mxCell id="l0oDYleAhtw5hOrFRe71-123" value="" style="edgeStyle=orthogonalEdgeStyle;rounded=0;orthogonalLoop=1;jettySize=auto;html=1;entryX=1;entryY=0.5;entryDx=0;entryDy=0;" edge="1" parent="WIyWlLk6GJQsqaUBKTNV-1" source="l0oDYleAhtw5hOrFRe71-124" target="l0oDYleAhtw5hOrFRe71-126">
          <mxGeometry relative="1" as="geometry">
            <mxPoint x="405" y="2970" as="targetPoint" />
          </mxGeometry>
        </mxCell>
        <mxCell id="l0oDYleAhtw5hOrFRe71-124" value="" style="rounded=1;whiteSpace=wrap;html=1;" vertex="1" parent="WIyWlLk6GJQsqaUBKTNV-1">
          <mxGeometry x="525" y="2950" width="40" height="40" as="geometry" />
        </mxCell>
        <mxCell id="l0oDYleAhtw5hOrFRe71-125" value="" style="shape=umlDestroy;whiteSpace=wrap;html=1;strokeWidth=3;rounded=1;" vertex="1" parent="WIyWlLk6GJQsqaUBKTNV-1">
          <mxGeometry x="530" y="2955" width="30" height="30" as="geometry" />
        </mxCell>
        <mxCell id="l0oDYleAhtw5hOrFRe71-129" value="" style="edgeStyle=orthogonalEdgeStyle;rounded=0;orthogonalLoop=1;jettySize=auto;html=1;" edge="1" parent="WIyWlLk6GJQsqaUBKTNV-1" source="l0oDYleAhtw5hOrFRe71-126" target="l0oDYleAhtw5hOrFRe71-128">
          <mxGeometry relative="1" as="geometry" />
        </mxCell>
        <mxCell id="l0oDYleAhtw5hOrFRe71-126" value="&quot;Ja&quot; ausgewählt" style="shape=hexagon;perimeter=hexagonPerimeter2;whiteSpace=wrap;html=1;fixedSize=1;" vertex="1" parent="WIyWlLk6GJQsqaUBKTNV-1">
          <mxGeometry x="285" y="2930" width="160" height="80" as="geometry" />
        </mxCell>
        <mxCell id="l0oDYleAhtw5hOrFRe71-135" value="" style="edgeStyle=orthogonalEdgeStyle;rounded=0;orthogonalLoop=1;jettySize=auto;html=1;" edge="1" parent="WIyWlLk6GJQsqaUBKTNV-1" source="l0oDYleAhtw5hOrFRe71-127" target="l0oDYleAhtw5hOrFRe71-133">
          <mxGeometry relative="1" as="geometry" />
        </mxCell>
        <mxCell id="l0oDYleAhtw5hOrFRe71-127" value="&quot;Nein&quot; ausgewählt" style="shape=hexagon;perimeter=hexagonPerimeter2;whiteSpace=wrap;html=1;fixedSize=1;" vertex="1" parent="WIyWlLk6GJQsqaUBKTNV-1">
          <mxGeometry x="665" y="2930" width="120" height="80" as="geometry" />
        </mxCell>
        <mxCell id="l0oDYleAhtw5hOrFRe71-131" value="" style="edgeStyle=orthogonalEdgeStyle;rounded=0;orthogonalLoop=1;jettySize=auto;html=1;" edge="1" parent="WIyWlLk6GJQsqaUBKTNV-1" source="l0oDYleAhtw5hOrFRe71-128" target="l0oDYleAhtw5hOrFRe71-130">
          <mxGeometry relative="1" as="geometry" />
        </mxCell>
        <mxCell id="l0oDYleAhtw5hOrFRe71-128" value="Neues Feld mit Login Option wird erscheinen" style="rounded=1;whiteSpace=wrap;html=1;" vertex="1" parent="WIyWlLk6GJQsqaUBKTNV-1">
          <mxGeometry x="305" y="3060" width="120" height="60" as="geometry" />
        </mxCell>
        <mxCell id="l0oDYleAhtw5hOrFRe71-137" value="" style="edgeStyle=orthogonalEdgeStyle;rounded=0;orthogonalLoop=1;jettySize=auto;html=1;" edge="1" parent="WIyWlLk6GJQsqaUBKTNV-1" source="l0oDYleAhtw5hOrFRe71-130" target="l0oDYleAhtw5hOrFRe71-136">
          <mxGeometry relative="1" as="geometry" />
        </mxCell>
        <mxCell id="l0oDYleAhtw5hOrFRe71-130" value="Login Option Feld erscheint" style="shape=hexagon;perimeter=hexagonPerimeter2;whiteSpace=wrap;html=1;fixedSize=1;" vertex="1" parent="WIyWlLk6GJQsqaUBKTNV-1">
          <mxGeometry x="305" y="3160" width="120" height="80" as="geometry" />
        </mxCell>
        <mxCell id="l0oDYleAhtw5hOrFRe71-132" value="" style="edgeStyle=orthogonalEdgeStyle;rounded=0;orthogonalLoop=1;jettySize=auto;html=1;" edge="1" parent="WIyWlLk6GJQsqaUBKTNV-1" source="l0oDYleAhtw5hOrFRe71-133" target="l0oDYleAhtw5hOrFRe71-134">
          <mxGeometry relative="1" as="geometry" />
        </mxCell>
        <mxCell id="l0oDYleAhtw5hOrFRe71-133" value="persönliche Daten müssen von Hand eingetragen werden" style="rounded=1;whiteSpace=wrap;html=1;" vertex="1" parent="WIyWlLk6GJQsqaUBKTNV-1">
          <mxGeometry x="665" y="3060" width="120" height="60" as="geometry" />
        </mxCell>
        <mxCell id="l0oDYleAhtw5hOrFRe71-134" value="Persönliche Daten eingetragen" style="shape=hexagon;perimeter=hexagonPerimeter2;whiteSpace=wrap;html=1;fixedSize=1;" vertex="1" parent="WIyWlLk6GJQsqaUBKTNV-1">
          <mxGeometry x="665" y="3160" width="120" height="80" as="geometry" />
        </mxCell>
        <mxCell id="l0oDYleAhtw5hOrFRe71-139" value="" style="edgeStyle=orthogonalEdgeStyle;rounded=0;orthogonalLoop=1;jettySize=auto;html=1;" edge="1" parent="WIyWlLk6GJQsqaUBKTNV-1" source="l0oDYleAhtw5hOrFRe71-136" target="l0oDYleAhtw5hOrFRe71-138">
          <mxGeometry relative="1" as="geometry" />
        </mxCell>
        <mxCell id="l0oDYleAhtw5hOrFRe71-136" value="Login Daten werden eingetragen" style="rounded=1;whiteSpace=wrap;html=1;" vertex="1" parent="WIyWlLk6GJQsqaUBKTNV-1">
          <mxGeometry x="305" y="3280" width="120" height="60" as="geometry" />
        </mxCell>
        <mxCell id="l0oDYleAhtw5hOrFRe71-142" value="" style="edgeStyle=orthogonalEdgeStyle;rounded=0;orthogonalLoop=1;jettySize=auto;html=1;" edge="1" parent="WIyWlLk6GJQsqaUBKTNV-1" source="l0oDYleAhtw5hOrFRe71-138" target="l0oDYleAhtw5hOrFRe71-140">
          <mxGeometry relative="1" as="geometry" />
        </mxCell>
        <mxCell id="l0oDYleAhtw5hOrFRe71-138" value="Login Daten eingetragen" style="shape=hexagon;perimeter=hexagonPerimeter2;whiteSpace=wrap;html=1;fixedSize=1;" vertex="1" parent="WIyWlLk6GJQsqaUBKTNV-1">
          <mxGeometry x="305" y="3380" width="120" height="80" as="geometry" />
        </mxCell>
        <mxCell id="l0oDYleAhtw5hOrFRe71-143" value="" style="edgeStyle=orthogonalEdgeStyle;rounded=0;orthogonalLoop=1;jettySize=auto;html=1;" edge="1" parent="WIyWlLk6GJQsqaUBKTNV-1" source="l0oDYleAhtw5hOrFRe71-140" target="l0oDYleAhtw5hOrFRe71-141">
          <mxGeometry relative="1" as="geometry" />
        </mxCell>
        <mxCell id="l0oDYleAhtw5hOrFRe71-140" value="Login-Button färbt sich dunkel" style="rounded=1;whiteSpace=wrap;html=1;" vertex="1" parent="WIyWlLk6GJQsqaUBKTNV-1">
          <mxGeometry x="305" y="3500" width="120" height="60" as="geometry" />
        </mxCell>
        <mxCell id="l0oDYleAhtw5hOrFRe71-151" value="" style="edgeStyle=orthogonalEdgeStyle;rounded=0;orthogonalLoop=1;jettySize=auto;html=1;" edge="1" parent="WIyWlLk6GJQsqaUBKTNV-1" source="l0oDYleAhtw5hOrFRe71-141" target="l0oDYleAhtw5hOrFRe71-144">
          <mxGeometry relative="1" as="geometry" />
        </mxCell>
        <mxCell id="l0oDYleAhtw5hOrFRe71-141" value="Login Button gedrückt" style="shape=hexagon;perimeter=hexagonPerimeter2;whiteSpace=wrap;html=1;fixedSize=1;" vertex="1" parent="WIyWlLk6GJQsqaUBKTNV-1">
          <mxGeometry x="305" y="3600" width="120" height="80" as="geometry" />
        </mxCell>
        <mxCell id="l0oDYleAhtw5hOrFRe71-152" value="" style="edgeStyle=orthogonalEdgeStyle;rounded=0;orthogonalLoop=1;jettySize=auto;html=1;" edge="1" parent="WIyWlLk6GJQsqaUBKTNV-1" source="l0oDYleAhtw5hOrFRe71-144" target="l0oDYleAhtw5hOrFRe71-148">
          <mxGeometry relative="1" as="geometry" />
        </mxCell>
        <mxCell id="l0oDYleAhtw5hOrFRe71-144" value="Login Daten werden überprüft" style="rounded=1;whiteSpace=wrap;html=1;" vertex="1" parent="WIyWlLk6GJQsqaUBKTNV-1">
          <mxGeometry x="305" y="3720" width="120" height="60" as="geometry" />
        </mxCell>
        <mxCell id="l0oDYleAhtw5hOrFRe71-145" value="" style="edgeStyle=orthogonalEdgeStyle;rounded=0;orthogonalLoop=1;jettySize=auto;html=1;" edge="1" parent="WIyWlLk6GJQsqaUBKTNV-1" source="l0oDYleAhtw5hOrFRe71-147">
          <mxGeometry relative="1" as="geometry">
            <mxPoint x="435" y="3840" as="targetPoint" />
          </mxGeometry>
        </mxCell>
        <mxCell id="l0oDYleAhtw5hOrFRe71-146" value="" style="edgeStyle=orthogonalEdgeStyle;rounded=0;orthogonalLoop=1;jettySize=auto;html=1;" edge="1" parent="WIyWlLk6GJQsqaUBKTNV-1" source="l0oDYleAhtw5hOrFRe71-147">
          <mxGeometry relative="1" as="geometry">
            <mxPoint x="305" y="3840" as="targetPoint" />
          </mxGeometry>
        </mxCell>
        <mxCell id="l0oDYleAhtw5hOrFRe71-147" value="" style="rounded=1;whiteSpace=wrap;html=1;" vertex="1" parent="WIyWlLk6GJQsqaUBKTNV-1">
          <mxGeometry x="345" y="3820" width="40" height="40" as="geometry" />
        </mxCell>
        <mxCell id="l0oDYleAhtw5hOrFRe71-148" value="" style="shape=umlDestroy;whiteSpace=wrap;html=1;strokeWidth=3;rounded=1;" vertex="1" parent="WIyWlLk6GJQsqaUBKTNV-1">
          <mxGeometry x="350" y="3825" width="30" height="30" as="geometry" />
        </mxCell>
        <mxCell id="l0oDYleAhtw5hOrFRe71-164" value="" style="edgeStyle=orthogonalEdgeStyle;rounded=0;orthogonalLoop=1;jettySize=auto;html=1;entryX=0.5;entryY=0;entryDx=0;entryDy=0;" edge="1" parent="WIyWlLk6GJQsqaUBKTNV-1" source="l0oDYleAhtw5hOrFRe71-149" target="l0oDYleAhtw5hOrFRe71-160">
          <mxGeometry relative="1" as="geometry" />
        </mxCell>
        <mxCell id="l0oDYleAhtw5hOrFRe71-149" value="Login Daten korrekt" style="shape=hexagon;perimeter=hexagonPerimeter2;whiteSpace=wrap;html=1;fixedSize=1;" vertex="1" parent="WIyWlLk6GJQsqaUBKTNV-1">
          <mxGeometry x="215" y="3815" width="90" height="50" as="geometry" />
        </mxCell>
        <mxCell id="l0oDYleAhtw5hOrFRe71-156" value="" style="edgeStyle=orthogonalEdgeStyle;rounded=0;orthogonalLoop=1;jettySize=auto;html=1;" edge="1" parent="WIyWlLk6GJQsqaUBKTNV-1" source="l0oDYleAhtw5hOrFRe71-150" target="l0oDYleAhtw5hOrFRe71-153">
          <mxGeometry relative="1" as="geometry" />
        </mxCell>
        <mxCell id="l0oDYleAhtw5hOrFRe71-150" value="Login Daten falsch" style="shape=hexagon;perimeter=hexagonPerimeter2;whiteSpace=wrap;html=1;fixedSize=1;" vertex="1" parent="WIyWlLk6GJQsqaUBKTNV-1">
          <mxGeometry x="435" y="3817.5" width="90" height="45" as="geometry" />
        </mxCell>
        <mxCell id="l0oDYleAhtw5hOrFRe71-157" value="" style="edgeStyle=orthogonalEdgeStyle;rounded=0;orthogonalLoop=1;jettySize=auto;html=1;" edge="1" parent="WIyWlLk6GJQsqaUBKTNV-1" source="l0oDYleAhtw5hOrFRe71-153" target="l0oDYleAhtw5hOrFRe71-154">
          <mxGeometry relative="1" as="geometry" />
        </mxCell>
        <mxCell id="l0oDYleAhtw5hOrFRe71-153" value="Mensch wird zurück zur Login Seite geleitet" style="rounded=1;whiteSpace=wrap;html=1;" vertex="1" parent="WIyWlLk6GJQsqaUBKTNV-1">
          <mxGeometry x="420" y="3900" width="120" height="60" as="geometry" />
        </mxCell>
        <mxCell id="l0oDYleAhtw5hOrFRe71-158" value="" style="edgeStyle=orthogonalEdgeStyle;rounded=0;orthogonalLoop=1;jettySize=auto;html=1;" edge="1" parent="WIyWlLk6GJQsqaUBKTNV-1" source="l0oDYleAhtw5hOrFRe71-154" target="l0oDYleAhtw5hOrFRe71-155">
          <mxGeometry relative="1" as="geometry" />
        </mxCell>
        <mxCell id="l0oDYleAhtw5hOrFRe71-154" value="Zurück auf Login Seite" style="shape=hexagon;perimeter=hexagonPerimeter2;whiteSpace=wrap;html=1;fixedSize=1;" vertex="1" parent="WIyWlLk6GJQsqaUBKTNV-1">
          <mxGeometry x="420" y="4007" width="120" height="80" as="geometry" />
        </mxCell>
        <mxCell id="l0oDYleAhtw5hOrFRe71-155" value="In roter Schrift erscheint: &quot;Login Daten nicht korrekt, bitte versuchen Sie es erneut&quot; unter Login Option" style="rounded=1;whiteSpace=wrap;html=1;" vertex="1" parent="WIyWlLk6GJQsqaUBKTNV-1">
          <mxGeometry x="420" y="4140" width="120" height="90" as="geometry" />
        </mxCell>
        <mxCell id="l0oDYleAhtw5hOrFRe71-159" value="REPEAT" style="text;html=1;strokeColor=none;fillColor=none;align=center;verticalAlign=middle;whiteSpace=wrap;rounded=0;" vertex="1" parent="WIyWlLk6GJQsqaUBKTNV-1">
          <mxGeometry x="460" y="4240" width="40" height="20" as="geometry" />
        </mxCell>
        <mxCell id="l0oDYleAhtw5hOrFRe71-165" value="" style="edgeStyle=orthogonalEdgeStyle;rounded=0;orthogonalLoop=1;jettySize=auto;html=1;" edge="1" parent="WIyWlLk6GJQsqaUBKTNV-1" source="l0oDYleAhtw5hOrFRe71-160" target="l0oDYleAhtw5hOrFRe71-161">
          <mxGeometry relative="1" as="geometry" />
        </mxCell>
        <mxCell id="l0oDYleAhtw5hOrFRe71-160" value="Login erfolgreich" style="rounded=1;whiteSpace=wrap;html=1;" vertex="1" parent="WIyWlLk6GJQsqaUBKTNV-1">
          <mxGeometry x="200" y="3900" width="120" height="60" as="geometry" />
        </mxCell>
        <mxCell id="l0oDYleAhtw5hOrFRe71-168" value="" style="edgeStyle=orthogonalEdgeStyle;rounded=0;orthogonalLoop=1;jettySize=auto;html=1;" edge="1" parent="WIyWlLk6GJQsqaUBKTNV-1" source="l0oDYleAhtw5hOrFRe71-161" target="l0oDYleAhtw5hOrFRe71-162">
          <mxGeometry relative="1" as="geometry" />
        </mxCell>
        <mxCell id="l0oDYleAhtw5hOrFRe71-161" value="Login ist erfolgt" style="shape=hexagon;perimeter=hexagonPerimeter2;whiteSpace=wrap;html=1;fixedSize=1;" vertex="1" parent="WIyWlLk6GJQsqaUBKTNV-1">
          <mxGeometry x="200" y="4007" width="120" height="80" as="geometry" />
        </mxCell>
        <mxCell id="l0oDYleAhtw5hOrFRe71-167" value="" style="edgeStyle=orthogonalEdgeStyle;rounded=0;orthogonalLoop=1;jettySize=auto;html=1;" edge="1" parent="WIyWlLk6GJQsqaUBKTNV-1" source="l0oDYleAhtw5hOrFRe71-162" target="l0oDYleAhtw5hOrFRe71-162">
          <mxGeometry relative="1" as="geometry" />
        </mxCell>
        <mxCell id="l0oDYleAhtw5hOrFRe71-169" value="" style="edgeStyle=orthogonalEdgeStyle;rounded=0;orthogonalLoop=1;jettySize=auto;html=1;" edge="1" parent="WIyWlLk6GJQsqaUBKTNV-1" source="l0oDYleAhtw5hOrFRe71-162" target="l0oDYleAhtw5hOrFRe71-163">
          <mxGeometry relative="1" as="geometry" />
        </mxCell>
        <mxCell id="l0oDYleAhtw5hOrFRe71-162" value="persönliche Daten werden automatisch eingetragen" style="rounded=1;whiteSpace=wrap;html=1;" vertex="1" parent="WIyWlLk6GJQsqaUBKTNV-1">
          <mxGeometry x="200" y="4130" width="120" height="60" as="geometry" />
        </mxCell>
        <mxCell id="l0oDYleAhtw5hOrFRe71-163" value="Persönliche Daten eingetragen" style="shape=hexagon;perimeter=hexagonPerimeter2;whiteSpace=wrap;html=1;fixedSize=1;" vertex="1" parent="WIyWlLk6GJQsqaUBKTNV-1">
          <mxGeometry x="200" y="4240" width="120" height="80" as="geometry" />
        </mxCell>
        <mxCell id="l0oDYleAhtw5hOrFRe71-170" value="" style="rounded=1;whiteSpace=wrap;html=1;" vertex="1" parent="WIyWlLk6GJQsqaUBKTNV-1">
          <mxGeometry x="345" y="4350" width="40" height="40" as="geometry" />
        </mxCell>
        <mxCell id="l0oDYleAhtw5hOrFRe71-171" value="" style="shape=umlDestroy;whiteSpace=wrap;html=1;strokeWidth=3;rounded=1;" vertex="1" parent="WIyWlLk6GJQsqaUBKTNV-1">
          <mxGeometry x="350" y="4355" width="30" height="30" as="geometry" />
        </mxCell>
        <mxCell id="l0oDYleAhtw5hOrFRe71-175" value="" style="endArrow=classic;html=1;exitX=0.5;exitY=1;exitDx=0;exitDy=0;" edge="1" parent="WIyWlLk6GJQsqaUBKTNV-1" source="l0oDYleAhtw5hOrFRe71-134">
          <mxGeometry width="50" height="50" relative="1" as="geometry">
            <mxPoint x="485" y="3860" as="sourcePoint" />
            <mxPoint x="385" y="4370" as="targetPoint" />
            <Array as="points">
              <mxPoint x="725" y="4370" />
            </Array>
          </mxGeometry>
        </mxCell>
        <mxCell id="l0oDYleAhtw5hOrFRe71-176" value="" style="endArrow=classic;html=1;entryX=0;entryY=0.5;entryDx=0;entryDy=0;exitX=0.5;exitY=1;exitDx=0;exitDy=0;" edge="1" parent="WIyWlLk6GJQsqaUBKTNV-1" source="l0oDYleAhtw5hOrFRe71-163" target="l0oDYleAhtw5hOrFRe71-170">
          <mxGeometry width="50" height="50" relative="1" as="geometry">
            <mxPoint x="315" y="4240" as="sourcePoint" />
            <mxPoint x="365" y="4190" as="targetPoint" />
            <Array as="points">
              <mxPoint x="260" y="4370" />
            </Array>
          </mxGeometry>
        </mxCell>
        <mxCell id="l0oDYleAhtw5hOrFRe71-177" value="" style="rounded=1;whiteSpace=wrap;html=1;" vertex="1" parent="WIyWlLk6GJQsqaUBKTNV-1">
          <mxGeometry x="235" y="4440" width="40" height="40" as="geometry" />
        </mxCell>
        <mxCell id="l0oDYleAhtw5hOrFRe71-182" value="" style="edgeStyle=orthogonalEdgeStyle;rounded=0;orthogonalLoop=1;jettySize=auto;html=1;" edge="1" parent="WIyWlLk6GJQsqaUBKTNV-1" source="l0oDYleAhtw5hOrFRe71-178" target="l0oDYleAhtw5hOrFRe71-181">
          <mxGeometry relative="1" as="geometry" />
        </mxCell>
        <mxCell id="l0oDYleAhtw5hOrFRe71-178" value="" style="shape=umlDestroy;whiteSpace=wrap;html=1;strokeWidth=3;rounded=1;" vertex="1" parent="WIyWlLk6GJQsqaUBKTNV-1">
          <mxGeometry x="240" y="4445" width="30" height="30" as="geometry" />
        </mxCell>
        <mxCell id="l0oDYleAhtw5hOrFRe71-179" value="" style="endArrow=classic;html=1;exitX=0.5;exitY=1;exitDx=0;exitDy=0;" edge="1" parent="WIyWlLk6GJQsqaUBKTNV-1" source="l0oDYleAhtw5hOrFRe71-119">
          <mxGeometry width="50" height="50" relative="1" as="geometry">
            <mxPoint x="225" y="4110" as="sourcePoint" />
            <mxPoint x="235" y="4460" as="targetPoint" />
            <Array as="points">
              <mxPoint x="145" y="4460" />
            </Array>
          </mxGeometry>
        </mxCell>
        <mxCell id="l0oDYleAhtw5hOrFRe71-180" value="" style="endArrow=classic;html=1;entryX=1;entryY=0.5;entryDx=0;entryDy=0;exitX=0.5;exitY=1;exitDx=0;exitDy=0;" edge="1" parent="WIyWlLk6GJQsqaUBKTNV-1" source="l0oDYleAhtw5hOrFRe71-170" target="l0oDYleAhtw5hOrFRe71-177">
          <mxGeometry width="50" height="50" relative="1" as="geometry">
            <mxPoint x="365" y="4410" as="sourcePoint" />
            <mxPoint x="275" y="4030" as="targetPoint" />
            <Array as="points">
              <mxPoint x="365" y="4460" />
            </Array>
          </mxGeometry>
        </mxCell>
        <mxCell id="l0oDYleAhtw5hOrFRe71-184" value="" style="edgeStyle=orthogonalEdgeStyle;rounded=0;orthogonalLoop=1;jettySize=auto;html=1;" edge="1" parent="WIyWlLk6GJQsqaUBKTNV-1" source="l0oDYleAhtw5hOrFRe71-181" target="l0oDYleAhtw5hOrFRe71-183">
          <mxGeometry relative="1" as="geometry" />
        </mxCell>
        <mxCell id="l0oDYleAhtw5hOrFRe71-181" value="Bevor der Abschick Button sich dunkel färbt und man ihn drücken kann, muss man eine Sciherheitsfrage beantworten" style="rounded=1;whiteSpace=wrap;html=1;" vertex="1" parent="WIyWlLk6GJQsqaUBKTNV-1">
          <mxGeometry x="195" y="4530" width="120" height="100" as="geometry" />
        </mxCell>
        <mxCell id="l0oDYleAhtw5hOrFRe71-188" value="" style="edgeStyle=orthogonalEdgeStyle;rounded=0;orthogonalLoop=1;jettySize=auto;html=1;" edge="1" parent="WIyWlLk6GJQsqaUBKTNV-1" source="l0oDYleAhtw5hOrFRe71-183" target="l0oDYleAhtw5hOrFRe71-185">
          <mxGeometry relative="1" as="geometry" />
        </mxCell>
        <mxCell id="l0oDYleAhtw5hOrFRe71-183" value="Sicherheitsfrage beantwortet" style="shape=hexagon;perimeter=hexagonPerimeter2;whiteSpace=wrap;html=1;fixedSize=1;" vertex="1" parent="WIyWlLk6GJQsqaUBKTNV-1">
          <mxGeometry x="195" y="4676" width="120" height="80" as="geometry" />
        </mxCell>
        <mxCell id="l0oDYleAhtw5hOrFRe71-189" value="" style="edgeStyle=orthogonalEdgeStyle;rounded=0;orthogonalLoop=1;jettySize=auto;html=1;" edge="1" parent="WIyWlLk6GJQsqaUBKTNV-1" source="l0oDYleAhtw5hOrFRe71-185" target="l0oDYleAhtw5hOrFRe71-186">
          <mxGeometry relative="1" as="geometry" />
        </mxCell>
        <mxCell id="l0oDYleAhtw5hOrFRe71-185" value="Button mit: &quot;Daten bestätigen&quot; wird dunkel verfärbt" style="rounded=1;whiteSpace=wrap;html=1;" vertex="1" parent="WIyWlLk6GJQsqaUBKTNV-1">
          <mxGeometry x="195" y="4800" width="120" height="60" as="geometry" />
        </mxCell>
        <mxCell id="l0oDYleAhtw5hOrFRe71-190" value="" style="edgeStyle=orthogonalEdgeStyle;rounded=0;orthogonalLoop=1;jettySize=auto;html=1;" edge="1" parent="WIyWlLk6GJQsqaUBKTNV-1" source="l0oDYleAhtw5hOrFRe71-186" target="l0oDYleAhtw5hOrFRe71-187">
          <mxGeometry relative="1" as="geometry" />
        </mxCell>
        <mxCell id="l0oDYleAhtw5hOrFRe71-186" value="Button &quot;Daten bestätigen&quot; gedrückt" style="shape=hexagon;perimeter=hexagonPerimeter2;whiteSpace=wrap;html=1;fixedSize=1;" vertex="1" parent="WIyWlLk6GJQsqaUBKTNV-1">
          <mxGeometry x="195" y="4910" width="120" height="80" as="geometry" />
        </mxCell>
        <mxCell id="l0oDYleAhtw5hOrFRe71-198" value="" style="edgeStyle=orthogonalEdgeStyle;rounded=0;orthogonalLoop=1;jettySize=auto;html=1;" edge="1" parent="WIyWlLk6GJQsqaUBKTNV-1" source="l0oDYleAhtw5hOrFRe71-187" target="l0oDYleAhtw5hOrFRe71-194">
          <mxGeometry relative="1" as="geometry" />
        </mxCell>
        <mxCell id="l0oDYleAhtw5hOrFRe71-187" value="Kompletter Termin und Daten werden zur Überprüfung angezeigt" style="rounded=1;whiteSpace=wrap;html=1;" vertex="1" parent="WIyWlLk6GJQsqaUBKTNV-1">
          <mxGeometry x="195" y="5040" width="120" height="60" as="geometry" />
        </mxCell>
        <mxCell id="l0oDYleAhtw5hOrFRe71-191" value="" style="edgeStyle=orthogonalEdgeStyle;rounded=0;orthogonalLoop=1;jettySize=auto;html=1;" edge="1" parent="WIyWlLk6GJQsqaUBKTNV-1" source="l0oDYleAhtw5hOrFRe71-193">
          <mxGeometry relative="1" as="geometry">
            <mxPoint x="375" y="5160" as="targetPoint" />
          </mxGeometry>
        </mxCell>
        <mxCell id="l0oDYleAhtw5hOrFRe71-192" value="" style="edgeStyle=orthogonalEdgeStyle;rounded=0;orthogonalLoop=1;jettySize=auto;html=1;entryX=1;entryY=0.5;entryDx=0;entryDy=0;" edge="1" parent="WIyWlLk6GJQsqaUBKTNV-1" source="l0oDYleAhtw5hOrFRe71-193" target="l0oDYleAhtw5hOrFRe71-195">
          <mxGeometry relative="1" as="geometry">
            <mxPoint x="115" y="5160" as="targetPoint" />
          </mxGeometry>
        </mxCell>
        <mxCell id="l0oDYleAhtw5hOrFRe71-193" value="" style="rounded=1;whiteSpace=wrap;html=1;" vertex="1" parent="WIyWlLk6GJQsqaUBKTNV-1">
          <mxGeometry x="235" y="5140" width="40" height="40" as="geometry" />
        </mxCell>
        <mxCell id="l0oDYleAhtw5hOrFRe71-194" value="" style="shape=umlDestroy;whiteSpace=wrap;html=1;strokeWidth=3;rounded=1;" vertex="1" parent="WIyWlLk6GJQsqaUBKTNV-1">
          <mxGeometry x="240" y="5145" width="30" height="30" as="geometry" />
        </mxCell>
        <mxCell id="l0oDYleAhtw5hOrFRe71-195" value="Daten und Termin überprüft und richtig" style="shape=hexagon;perimeter=hexagonPerimeter2;whiteSpace=wrap;html=1;fixedSize=1;" vertex="1" parent="WIyWlLk6GJQsqaUBKTNV-1">
          <mxGeometry x="35" y="5120" width="120" height="80" as="geometry" />
        </mxCell>
        <mxCell id="l0oDYleAhtw5hOrFRe71-201" value="" style="edgeStyle=orthogonalEdgeStyle;rounded=0;orthogonalLoop=1;jettySize=auto;html=1;" edge="1" parent="WIyWlLk6GJQsqaUBKTNV-1" source="l0oDYleAhtw5hOrFRe71-196" target="l0oDYleAhtw5hOrFRe71-199">
          <mxGeometry relative="1" as="geometry" />
        </mxCell>
        <mxCell id="l0oDYleAhtw5hOrFRe71-196" value="Daten und Termin überprüft und falsch" style="shape=hexagon;perimeter=hexagonPerimeter2;whiteSpace=wrap;html=1;fixedSize=1;" vertex="1" parent="WIyWlLk6GJQsqaUBKTNV-1">
          <mxGeometry x="375" y="5120" width="120" height="80" as="geometry" />
        </mxCell>
        <mxCell id="l0oDYleAhtw5hOrFRe71-202" value="" style="edgeStyle=orthogonalEdgeStyle;rounded=0;orthogonalLoop=1;jettySize=auto;html=1;" edge="1" parent="WIyWlLk6GJQsqaUBKTNV-1" source="l0oDYleAhtw5hOrFRe71-199" target="l0oDYleAhtw5hOrFRe71-200">
          <mxGeometry relative="1" as="geometry" />
        </mxCell>
        <mxCell id="l0oDYleAhtw5hOrFRe71-199" value="Möglichkeit Schritte zurück zu gehen und korrigieren" style="rounded=1;whiteSpace=wrap;html=1;" vertex="1" parent="WIyWlLk6GJQsqaUBKTNV-1">
          <mxGeometry x="375" y="5250" width="120" height="60" as="geometry" />
        </mxCell>
        <mxCell id="l0oDYleAhtw5hOrFRe71-211" value="" style="edgeStyle=orthogonalEdgeStyle;rounded=0;orthogonalLoop=1;jettySize=auto;html=1;" edge="1" parent="WIyWlLk6GJQsqaUBKTNV-1" source="l0oDYleAhtw5hOrFRe71-200" target="l0oDYleAhtw5hOrFRe71-203">
          <mxGeometry relative="1" as="geometry" />
        </mxCell>
        <mxCell id="l0oDYleAhtw5hOrFRe71-200" value="Daten neu eingeben" style="shape=hexagon;perimeter=hexagonPerimeter2;whiteSpace=wrap;html=1;fixedSize=1;" vertex="1" parent="WIyWlLk6GJQsqaUBKTNV-1">
          <mxGeometry x="375" y="5360" width="120" height="80" as="geometry" />
        </mxCell>
        <mxCell id="l0oDYleAhtw5hOrFRe71-210" value="" style="edgeStyle=orthogonalEdgeStyle;rounded=0;orthogonalLoop=1;jettySize=auto;html=1;entryX=0.5;entryY=0;entryDx=0;entryDy=0;" edge="1" parent="WIyWlLk6GJQsqaUBKTNV-1" source="l0oDYleAhtw5hOrFRe71-203" target="l0oDYleAhtw5hOrFRe71-206">
          <mxGeometry relative="1" as="geometry" />
        </mxCell>
        <mxCell id="l0oDYleAhtw5hOrFRe71-203" value="Daten nochmal überprüfen&amp;nbsp;" style="rounded=1;whiteSpace=wrap;html=1;" vertex="1" parent="WIyWlLk6GJQsqaUBKTNV-1">
          <mxGeometry x="375" y="5480" width="120" height="60" as="geometry" />
        </mxCell>
        <mxCell id="l0oDYleAhtw5hOrFRe71-204" value="" style="edgeStyle=orthogonalEdgeStyle;rounded=0;orthogonalLoop=1;jettySize=auto;html=1;" edge="1" parent="WIyWlLk6GJQsqaUBKTNV-1" source="l0oDYleAhtw5hOrFRe71-206">
          <mxGeometry relative="1" as="geometry">
            <mxPoint x="555" y="5610" as="targetPoint" />
          </mxGeometry>
        </mxCell>
        <mxCell id="l0oDYleAhtw5hOrFRe71-205" value="" style="edgeStyle=orthogonalEdgeStyle;rounded=0;orthogonalLoop=1;jettySize=auto;html=1;entryX=1;entryY=0.5;entryDx=0;entryDy=0;" edge="1" parent="WIyWlLk6GJQsqaUBKTNV-1" source="l0oDYleAhtw5hOrFRe71-206" target="l0oDYleAhtw5hOrFRe71-208">
          <mxGeometry relative="1" as="geometry">
            <mxPoint x="295" y="5610" as="targetPoint" />
          </mxGeometry>
        </mxCell>
        <mxCell id="l0oDYleAhtw5hOrFRe71-206" value="" style="rounded=1;whiteSpace=wrap;html=1;" vertex="1" parent="WIyWlLk6GJQsqaUBKTNV-1">
          <mxGeometry x="415" y="5590" width="40" height="40" as="geometry" />
        </mxCell>
        <mxCell id="l0oDYleAhtw5hOrFRe71-207" value="" style="shape=umlDestroy;whiteSpace=wrap;html=1;strokeWidth=3;rounded=1;" vertex="1" parent="WIyWlLk6GJQsqaUBKTNV-1">
          <mxGeometry x="420" y="5595" width="30" height="30" as="geometry" />
        </mxCell>
        <mxCell id="l0oDYleAhtw5hOrFRe71-208" value="Daten korrekt" style="shape=hexagon;perimeter=hexagonPerimeter2;whiteSpace=wrap;html=1;fixedSize=1;" vertex="1" parent="WIyWlLk6GJQsqaUBKTNV-1">
          <mxGeometry x="215" y="5570" width="120" height="80" as="geometry" />
        </mxCell>
        <mxCell id="l0oDYleAhtw5hOrFRe71-209" value="Daten fehlerhaft / falsch" style="shape=hexagon;perimeter=hexagonPerimeter2;whiteSpace=wrap;html=1;fixedSize=1;" vertex="1" parent="WIyWlLk6GJQsqaUBKTNV-1">
          <mxGeometry x="555" y="5570" width="120" height="80" as="geometry" />
        </mxCell>
        <mxCell id="l0oDYleAhtw5hOrFRe71-212" value="REPEAT" style="text;html=1;strokeColor=none;fillColor=none;align=center;verticalAlign=middle;whiteSpace=wrap;rounded=0;" vertex="1" parent="WIyWlLk6GJQsqaUBKTNV-1">
          <mxGeometry x="595" y="5660" width="40" height="20" as="geometry" />
        </mxCell>
        <mxCell id="l0oDYleAhtw5hOrFRe71-214" value="" style="rounded=1;whiteSpace=wrap;html=1;" vertex="1" parent="WIyWlLk6GJQsqaUBKTNV-1">
          <mxGeometry x="280" y="5720" width="40" height="40" as="geometry" />
        </mxCell>
        <mxCell id="l0oDYleAhtw5hOrFRe71-219" value="" style="edgeStyle=orthogonalEdgeStyle;rounded=0;orthogonalLoop=1;jettySize=auto;html=1;" edge="1" parent="WIyWlLk6GJQsqaUBKTNV-1" target="l0oDYleAhtw5hOrFRe71-218">
          <mxGeometry relative="1" as="geometry">
            <mxPoint x="300" y="5760" as="sourcePoint" />
          </mxGeometry>
        </mxCell>
        <mxCell id="l0oDYleAhtw5hOrFRe71-215" value="" style="shape=umlDestroy;whiteSpace=wrap;html=1;strokeWidth=3;rounded=1;" vertex="1" parent="WIyWlLk6GJQsqaUBKTNV-1">
          <mxGeometry x="285" y="5725" width="30" height="30" as="geometry" />
        </mxCell>
        <mxCell id="l0oDYleAhtw5hOrFRe71-216" value="" style="endArrow=classic;html=1;entryX=0;entryY=0.5;entryDx=0;entryDy=0;exitX=0.5;exitY=1;exitDx=0;exitDy=0;" edge="1" parent="WIyWlLk6GJQsqaUBKTNV-1" source="l0oDYleAhtw5hOrFRe71-195" target="l0oDYleAhtw5hOrFRe71-214">
          <mxGeometry width="50" height="50" relative="1" as="geometry">
            <mxPoint x="265" y="5480" as="sourcePoint" />
            <mxPoint x="315" y="5430" as="targetPoint" />
            <Array as="points">
              <mxPoint x="95" y="5740" />
            </Array>
          </mxGeometry>
        </mxCell>
        <mxCell id="l0oDYleAhtw5hOrFRe71-217" value="" style="endArrow=classic;html=1;exitX=0.5;exitY=1;exitDx=0;exitDy=0;entryX=1;entryY=0.5;entryDx=0;entryDy=0;" edge="1" parent="WIyWlLk6GJQsqaUBKTNV-1" source="l0oDYleAhtw5hOrFRe71-208" target="l0oDYleAhtw5hOrFRe71-214">
          <mxGeometry width="50" height="50" relative="1" as="geometry">
            <mxPoint x="245" y="5480" as="sourcePoint" />
            <mxPoint x="295" y="5430" as="targetPoint" />
            <Array as="points">
              <mxPoint x="435" y="5740" />
            </Array>
          </mxGeometry>
        </mxCell>
        <mxCell id="l0oDYleAhtw5hOrFRe71-221" value="" style="edgeStyle=orthogonalEdgeStyle;rounded=0;orthogonalLoop=1;jettySize=auto;html=1;" edge="1" parent="WIyWlLk6GJQsqaUBKTNV-1" source="l0oDYleAhtw5hOrFRe71-218" target="l0oDYleAhtw5hOrFRe71-220">
          <mxGeometry relative="1" as="geometry" />
        </mxCell>
        <mxCell id="l0oDYleAhtw5hOrFRe71-218" value="Button zur Terminbestätigung kann gedrückt werden" style="rounded=1;whiteSpace=wrap;html=1;" vertex="1" parent="WIyWlLk6GJQsqaUBKTNV-1">
          <mxGeometry x="240" y="5800" width="120" height="60" as="geometry" />
        </mxCell>
        <mxCell id="l0oDYleAhtw5hOrFRe71-223" value="" style="edgeStyle=orthogonalEdgeStyle;rounded=0;orthogonalLoop=1;jettySize=auto;html=1;" edge="1" parent="WIyWlLk6GJQsqaUBKTNV-1" source="l0oDYleAhtw5hOrFRe71-220" target="l0oDYleAhtw5hOrFRe71-222">
          <mxGeometry relative="1" as="geometry" />
        </mxCell>
        <mxCell id="l0oDYleAhtw5hOrFRe71-220" value="Button gedrückt / Termin bestätigt" style="shape=hexagon;perimeter=hexagonPerimeter2;whiteSpace=wrap;html=1;fixedSize=1;" vertex="1" parent="WIyWlLk6GJQsqaUBKTNV-1">
          <mxGeometry x="240" y="5890" width="120" height="80" as="geometry" />
        </mxCell>
        <mxCell id="l0oDYleAhtw5hOrFRe71-225" value="" style="edgeStyle=orthogonalEdgeStyle;rounded=0;orthogonalLoop=1;jettySize=auto;html=1;" edge="1" parent="WIyWlLk6GJQsqaUBKTNV-1" source="l0oDYleAhtw5hOrFRe71-222" target="l0oDYleAhtw5hOrFRe71-224">
          <mxGeometry relative="1" as="geometry" />
        </mxCell>
        <mxCell id="l0oDYleAhtw5hOrFRe71-222" value="Bestätigungsmail wird automatisch an den Kunden per E-Mail-Adresse geschickt" style="rounded=1;whiteSpace=wrap;html=1;" vertex="1" parent="WIyWlLk6GJQsqaUBKTNV-1">
          <mxGeometry x="240" y="6000" width="120" height="60" as="geometry" />
        </mxCell>
        <mxCell id="l0oDYleAhtw5hOrFRe71-228" value="" style="edgeStyle=orthogonalEdgeStyle;rounded=0;orthogonalLoop=1;jettySize=auto;html=1;entryX=0.5;entryY=0;entryDx=0;entryDy=0;" edge="1" parent="WIyWlLk6GJQsqaUBKTNV-1" source="l0oDYleAhtw5hOrFRe71-224" target="l0oDYleAhtw5hOrFRe71-226">
          <mxGeometry relative="1" as="geometry" />
        </mxCell>
        <mxCell id="l0oDYleAhtw5hOrFRe71-224" value="E-Mail verschickt / erhalten" style="shape=hexagon;perimeter=hexagonPerimeter2;whiteSpace=wrap;html=1;fixedSize=1;" vertex="1" parent="WIyWlLk6GJQsqaUBKTNV-1">
          <mxGeometry x="240" y="6090" width="120" height="80" as="geometry" />
        </mxCell>
        <mxCell id="l0oDYleAhtw5hOrFRe71-226" value="" style="rounded=1;whiteSpace=wrap;html=1;" vertex="1" parent="WIyWlLk6GJQsqaUBKTNV-1">
          <mxGeometry x="280" y="6200" width="40" height="40" as="geometry" />
        </mxCell>
        <mxCell id="l0oDYleAhtw5hOrFRe71-229" value="" style="endArrow=classic;html=1;exitX=0;exitY=0.5;exitDx=0;exitDy=0;" edge="1" parent="WIyWlLk6GJQsqaUBKTNV-1" source="l0oDYleAhtw5hOrFRe71-226">
          <mxGeometry width="50" height="50" relative="1" as="geometry">
            <mxPoint x="285" y="6220" as="sourcePoint" />
            <mxPoint x="135" y="6270" as="targetPoint" />
            <Array as="points">
              <mxPoint x="135" y="6220" />
            </Array>
          </mxGeometry>
        </mxCell>
        <mxCell id="l0oDYleAhtw5hOrFRe71-230" value="" style="endArrow=classic;html=1;exitX=0;exitY=0.5;exitDx=0;exitDy=0;" edge="1" parent="WIyWlLk6GJQsqaUBKTNV-1">
          <mxGeometry width="50" height="50" relative="1" as="geometry">
            <mxPoint x="320" y="6220" as="sourcePoint" />
            <mxPoint x="456.14285714285717" y="6270" as="targetPoint" />
            <Array as="points">
              <mxPoint x="455" y="6220" />
            </Array>
          </mxGeometry>
        </mxCell>
        <mxCell id="l0oDYleAhtw5hOrFRe71-251" value="" style="edgeStyle=orthogonalEdgeStyle;rounded=0;orthogonalLoop=1;jettySize=auto;html=1;" edge="1" parent="WIyWlLk6GJQsqaUBKTNV-1" source="l0oDYleAhtw5hOrFRe71-231" target="l0oDYleAhtw5hOrFRe71-250">
          <mxGeometry relative="1" as="geometry" />
        </mxCell>
        <mxCell id="l0oDYleAhtw5hOrFRe71-231" value="" style="rounded=1;whiteSpace=wrap;html=1;" vertex="1" parent="WIyWlLk6GJQsqaUBKTNV-1">
          <mxGeometry x="435" y="6375" width="40" height="40" as="geometry" />
        </mxCell>
        <mxCell id="l0oDYleAhtw5hOrFRe71-232" value="" style="shape=umlDestroy;whiteSpace=wrap;html=1;strokeWidth=3;rounded=1;" vertex="1" parent="WIyWlLk6GJQsqaUBKTNV-1">
          <mxGeometry x="440" y="6380" width="30" height="30" as="geometry" />
        </mxCell>
        <mxCell id="l0oDYleAhtw5hOrFRe71-233" value="" style="endArrow=classic;html=1;exitX=0;exitY=0.5;exitDx=0;exitDy=0;" edge="1" parent="WIyWlLk6GJQsqaUBKTNV-1">
          <mxGeometry width="50" height="50" relative="1" as="geometry">
            <mxPoint x="475" y="6395" as="sourcePoint" />
            <mxPoint x="715" y="6440" as="targetPoint" />
            <Array as="points">
              <mxPoint x="715" y="6395" />
            </Array>
          </mxGeometry>
        </mxCell>
        <mxCell id="l0oDYleAhtw5hOrFRe71-240" value="" style="edgeStyle=orthogonalEdgeStyle;rounded=0;orthogonalLoop=1;jettySize=auto;html=1;" edge="1" parent="WIyWlLk6GJQsqaUBKTNV-1" source="l0oDYleAhtw5hOrFRe71-235" target="l0oDYleAhtw5hOrFRe71-239">
          <mxGeometry relative="1" as="geometry" />
        </mxCell>
        <mxCell id="l0oDYleAhtw5hOrFRe71-235" value="Termin wird im Kalender / Datenbank eingetragen" style="rounded=1;whiteSpace=wrap;html=1;" vertex="1" parent="WIyWlLk6GJQsqaUBKTNV-1">
          <mxGeometry x="75" y="6270" width="120" height="60" as="geometry" />
        </mxCell>
        <mxCell id="l0oDYleAhtw5hOrFRe71-236" value="" style="endArrow=none;html=1;" edge="1" parent="WIyWlLk6GJQsqaUBKTNV-1">
          <mxGeometry width="50" height="50" relative="1" as="geometry">
            <mxPoint x="300" y="6210" as="sourcePoint" />
            <mxPoint x="290" y="6230" as="targetPoint" />
          </mxGeometry>
        </mxCell>
        <mxCell id="l0oDYleAhtw5hOrFRe71-237" value="" style="endArrow=none;html=1;" edge="1" parent="WIyWlLk6GJQsqaUBKTNV-1">
          <mxGeometry width="50" height="50" relative="1" as="geometry">
            <mxPoint x="300" y="6210" as="sourcePoint" />
            <mxPoint x="310" y="6230" as="targetPoint" />
          </mxGeometry>
        </mxCell>
        <mxCell id="l0oDYleAhtw5hOrFRe71-242" value="" style="edgeStyle=orthogonalEdgeStyle;rounded=0;orthogonalLoop=1;jettySize=auto;html=1;" edge="1" parent="WIyWlLk6GJQsqaUBKTNV-1" source="l0oDYleAhtw5hOrFRe71-239" target="l0oDYleAhtw5hOrFRe71-241">
          <mxGeometry relative="1" as="geometry" />
        </mxCell>
        <mxCell id="l0oDYleAhtw5hOrFRe71-239" value="Termin im Kalender eingetragen" style="shape=hexagon;perimeter=hexagonPerimeter2;whiteSpace=wrap;html=1;fixedSize=1;" vertex="1" parent="WIyWlLk6GJQsqaUBKTNV-1">
          <mxGeometry x="75" y="6370" width="120" height="80" as="geometry" />
        </mxCell>
        <mxCell id="l0oDYleAhtw5hOrFRe71-244" value="" style="edgeStyle=orthogonalEdgeStyle;rounded=0;orthogonalLoop=1;jettySize=auto;html=1;" edge="1" parent="WIyWlLk6GJQsqaUBKTNV-1" source="l0oDYleAhtw5hOrFRe71-241" target="l0oDYleAhtw5hOrFRe71-243">
          <mxGeometry relative="1" as="geometry" />
        </mxCell>
        <mxCell id="l0oDYleAhtw5hOrFRe71-241" value="Termin wird freiem Mitarbeiter zugewiesen" style="rounded=1;whiteSpace=wrap;html=1;" vertex="1" parent="WIyWlLk6GJQsqaUBKTNV-1">
          <mxGeometry x="75" y="6490" width="120" height="60" as="geometry" />
        </mxCell>
        <mxCell id="l0oDYleAhtw5hOrFRe71-243" value="Mitarbeiter wurde Termin zugewiesen" style="shape=hexagon;perimeter=hexagonPerimeter2;whiteSpace=wrap;html=1;fixedSize=1;" vertex="1" parent="WIyWlLk6GJQsqaUBKTNV-1">
          <mxGeometry x="75" y="6590" width="120" height="80" as="geometry" />
        </mxCell>
        <mxCell id="l0oDYleAhtw5hOrFRe71-248" value="" style="edgeStyle=orthogonalEdgeStyle;rounded=0;orthogonalLoop=1;jettySize=auto;html=1;entryX=0.5;entryY=0;entryDx=0;entryDy=0;" edge="1" parent="WIyWlLk6GJQsqaUBKTNV-1" source="l0oDYleAhtw5hOrFRe71-245" target="l0oDYleAhtw5hOrFRe71-231">
          <mxGeometry relative="1" as="geometry">
            <mxPoint x="455" y="6370" as="targetPoint" />
          </mxGeometry>
        </mxCell>
        <mxCell id="l0oDYleAhtw5hOrFRe71-245" value="Es wird überprüft ob der Kunde eingeloggt war oder nicht" style="rounded=1;whiteSpace=wrap;html=1;" vertex="1" parent="WIyWlLk6GJQsqaUBKTNV-1">
          <mxGeometry x="395" y="6270" width="120" height="60" as="geometry" />
        </mxCell>
        <mxCell id="l0oDYleAhtw5hOrFRe71-258" value="" style="edgeStyle=orthogonalEdgeStyle;rounded=0;orthogonalLoop=1;jettySize=auto;html=1;" edge="1" parent="WIyWlLk6GJQsqaUBKTNV-1" source="l0oDYleAhtw5hOrFRe71-246" target="l0oDYleAhtw5hOrFRe71-256">
          <mxGeometry relative="1" as="geometry" />
        </mxCell>
        <mxCell id="l0oDYleAhtw5hOrFRe71-246" value="Davor eingeloggt" style="shape=hexagon;perimeter=hexagonPerimeter2;whiteSpace=wrap;html=1;fixedSize=1;" vertex="1" parent="WIyWlLk6GJQsqaUBKTNV-1">
          <mxGeometry x="655" y="6440" width="120" height="80" as="geometry" />
        </mxCell>
        <mxCell id="l0oDYleAhtw5hOrFRe71-253" value="" style="edgeStyle=orthogonalEdgeStyle;rounded=0;orthogonalLoop=1;jettySize=auto;html=1;" edge="1" parent="WIyWlLk6GJQsqaUBKTNV-1" source="l0oDYleAhtw5hOrFRe71-250" target="l0oDYleAhtw5hOrFRe71-252">
          <mxGeometry relative="1" as="geometry" />
        </mxCell>
        <mxCell id="l0oDYleAhtw5hOrFRe71-250" value="Davor NICHT eingeloggt" style="shape=hexagon;perimeter=hexagonPerimeter2;whiteSpace=wrap;html=1;fixedSize=1;" vertex="1" parent="WIyWlLk6GJQsqaUBKTNV-1">
          <mxGeometry x="395" y="6440" width="120" height="80" as="geometry" />
        </mxCell>
        <mxCell id="l0oDYleAhtw5hOrFRe71-255" value="" style="edgeStyle=orthogonalEdgeStyle;rounded=0;orthogonalLoop=1;jettySize=auto;html=1;" edge="1" parent="WIyWlLk6GJQsqaUBKTNV-1" source="l0oDYleAhtw5hOrFRe71-252" target="l0oDYleAhtw5hOrFRe71-254">
          <mxGeometry relative="1" as="geometry" />
        </mxCell>
        <mxCell id="l0oDYleAhtw5hOrFRe71-252" value="Frage: &quot;Wollen Sie ein Kundenkonto erstellen zur Speicherung Ihrer Daten und für ein schnelleres ausfüllen von zukünftigen Formularen, bei Ihrem nächsten Besuch?&quot; wird erscheinen" style="rounded=1;whiteSpace=wrap;html=1;" vertex="1" parent="WIyWlLk6GJQsqaUBKTNV-1">
          <mxGeometry x="400" y="6560" width="110" height="170" as="geometry" />
        </mxCell>
        <mxCell id="l0oDYleAhtw5hOrFRe71-265" value="" style="edgeStyle=orthogonalEdgeStyle;rounded=0;orthogonalLoop=1;jettySize=auto;html=1;" edge="1" parent="WIyWlLk6GJQsqaUBKTNV-1" source="l0oDYleAhtw5hOrFRe71-254" target="l0oDYleAhtw5hOrFRe71-264">
          <mxGeometry relative="1" as="geometry" />
        </mxCell>
        <mxCell id="l0oDYleAhtw5hOrFRe71-254" value="Frage erscheint" style="shape=hexagon;perimeter=hexagonPerimeter2;whiteSpace=wrap;html=1;fixedSize=1;" vertex="1" parent="WIyWlLk6GJQsqaUBKTNV-1">
          <mxGeometry x="395" y="6760" width="120" height="80" as="geometry" />
        </mxCell>
        <mxCell id="l0oDYleAhtw5hOrFRe71-259" value="" style="edgeStyle=orthogonalEdgeStyle;rounded=0;orthogonalLoop=1;jettySize=auto;html=1;" edge="1" parent="WIyWlLk6GJQsqaUBKTNV-1" source="l0oDYleAhtw5hOrFRe71-256" target="l0oDYleAhtw5hOrFRe71-257">
          <mxGeometry relative="1" as="geometry" />
        </mxCell>
        <mxCell id="l0oDYleAhtw5hOrFRe71-256" value="Neues Feld: &quot;Wir freuen uns Sie bald offiziell als Schifferstadtler begrüßen zu dürfen. Bleiben Sie gesund.&quot; wird erscheinen" style="rounded=1;whiteSpace=wrap;html=1;" vertex="1" parent="WIyWlLk6GJQsqaUBKTNV-1">
          <mxGeometry x="655" y="6550" width="120" height="100" as="geometry" />
        </mxCell>
        <mxCell id="l0oDYleAhtw5hOrFRe71-262" value="" style="edgeStyle=orthogonalEdgeStyle;rounded=0;orthogonalLoop=1;jettySize=auto;html=1;" edge="1" parent="WIyWlLk6GJQsqaUBKTNV-1" source="l0oDYleAhtw5hOrFRe71-257" target="l0oDYleAhtw5hOrFRe71-260">
          <mxGeometry relative="1" as="geometry" />
        </mxCell>
        <mxCell id="l0oDYleAhtw5hOrFRe71-257" value="Feld erscheint" style="shape=hexagon;perimeter=hexagonPerimeter2;whiteSpace=wrap;html=1;fixedSize=1;" vertex="1" parent="WIyWlLk6GJQsqaUBKTNV-1">
          <mxGeometry x="655" y="6680" width="120" height="80" as="geometry" />
        </mxCell>
        <mxCell id="l0oDYleAhtw5hOrFRe71-263" value="" style="edgeStyle=orthogonalEdgeStyle;rounded=0;orthogonalLoop=1;jettySize=auto;html=1;" edge="1" parent="WIyWlLk6GJQsqaUBKTNV-1" source="l0oDYleAhtw5hOrFRe71-260" target="l0oDYleAhtw5hOrFRe71-261">
          <mxGeometry relative="1" as="geometry" />
        </mxCell>
        <mxCell id="l0oDYleAhtw5hOrFRe71-260" value="Button: &quot;Zurück zur Ummeldungs- Informationen&quot; erscheint" style="rounded=1;whiteSpace=wrap;html=1;" vertex="1" parent="WIyWlLk6GJQsqaUBKTNV-1">
          <mxGeometry x="655" y="6790" width="120" height="60" as="geometry" />
        </mxCell>
        <mxCell id="l0oDYleAhtw5hOrFRe71-261" value="Button gedrückt und zurück auf UmmeldungsSeite" style="shape=hexagon;perimeter=hexagonPerimeter2;whiteSpace=wrap;html=1;fixedSize=1;" vertex="1" parent="WIyWlLk6GJQsqaUBKTNV-1">
          <mxGeometry x="650" y="6880" width="130" height="80" as="geometry" />
        </mxCell>
        <mxCell id="l0oDYleAhtw5hOrFRe71-269" value="" style="edgeStyle=orthogonalEdgeStyle;rounded=0;orthogonalLoop=1;jettySize=auto;html=1;entryX=0.5;entryY=0;entryDx=0;entryDy=0;" edge="1" parent="WIyWlLk6GJQsqaUBKTNV-1" source="l0oDYleAhtw5hOrFRe71-264" target="l0oDYleAhtw5hOrFRe71-267">
          <mxGeometry relative="1" as="geometry" />
        </mxCell>
        <mxCell id="l0oDYleAhtw5hOrFRe71-264" value="Kann mit klicken auf Ja oder Nein beantwortet werden" style="rounded=1;whiteSpace=wrap;html=1;" vertex="1" parent="WIyWlLk6GJQsqaUBKTNV-1">
          <mxGeometry x="395" y="6870" width="120" height="60" as="geometry" />
        </mxCell>
        <mxCell id="l0oDYleAhtw5hOrFRe71-267" value="" style="rounded=1;whiteSpace=wrap;html=1;" vertex="1" parent="WIyWlLk6GJQsqaUBKTNV-1">
          <mxGeometry x="435" y="6960" width="40" height="40" as="geometry" />
        </mxCell>
        <mxCell id="l0oDYleAhtw5hOrFRe71-268" value="" style="shape=umlDestroy;whiteSpace=wrap;html=1;strokeWidth=3;rounded=1;" vertex="1" parent="WIyWlLk6GJQsqaUBKTNV-1">
          <mxGeometry x="440" y="6965" width="30" height="30" as="geometry" />
        </mxCell>
        <mxCell id="l0oDYleAhtw5hOrFRe71-284" value="" style="edgeStyle=orthogonalEdgeStyle;rounded=0;orthogonalLoop=1;jettySize=auto;html=1;" edge="1" parent="WIyWlLk6GJQsqaUBKTNV-1" source="l0oDYleAhtw5hOrFRe71-270" target="l0oDYleAhtw5hOrFRe71-283">
          <mxGeometry relative="1" as="geometry" />
        </mxCell>
        <mxCell id="l0oDYleAhtw5hOrFRe71-270" value="Frage mit &quot;Ja&quot; beantwortet" style="shape=hexagon;perimeter=hexagonPerimeter2;whiteSpace=wrap;html=1;fixedSize=1;" vertex="1" parent="WIyWlLk6GJQsqaUBKTNV-1">
          <mxGeometry x="295" y="7030" width="120" height="80" as="geometry" />
        </mxCell>
        <mxCell id="l0oDYleAhtw5hOrFRe71-276" value="" style="edgeStyle=orthogonalEdgeStyle;rounded=0;orthogonalLoop=1;jettySize=auto;html=1;" edge="1" parent="WIyWlLk6GJQsqaUBKTNV-1" source="l0oDYleAhtw5hOrFRe71-271" target="l0oDYleAhtw5hOrFRe71-275">
          <mxGeometry relative="1" as="geometry" />
        </mxCell>
        <mxCell id="l0oDYleAhtw5hOrFRe71-271" value="Frage mit &quot;Nein&quot; beantwortet" style="shape=hexagon;perimeter=hexagonPerimeter2;whiteSpace=wrap;html=1;fixedSize=1;" vertex="1" parent="WIyWlLk6GJQsqaUBKTNV-1">
          <mxGeometry x="515" y="7030" width="120" height="80" as="geometry" />
        </mxCell>
        <mxCell id="l0oDYleAhtw5hOrFRe71-272" value="" style="endArrow=classic;html=1;entryX=0.5;entryY=0;entryDx=0;entryDy=0;exitX=1;exitY=0.5;exitDx=0;exitDy=0;" edge="1" parent="WIyWlLk6GJQsqaUBKTNV-1" source="l0oDYleAhtw5hOrFRe71-267" target="l0oDYleAhtw5hOrFRe71-271">
          <mxGeometry width="50" height="50" relative="1" as="geometry">
            <mxPoint x="455" y="7030" as="sourcePoint" />
            <mxPoint x="505" y="6980" as="targetPoint" />
            <Array as="points">
              <mxPoint x="575" y="6980" />
            </Array>
          </mxGeometry>
        </mxCell>
        <mxCell id="l0oDYleAhtw5hOrFRe71-274" value="" style="endArrow=classic;html=1;entryX=0.5;entryY=0;entryDx=0;entryDy=0;exitX=0;exitY=0.5;exitDx=0;exitDy=0;" edge="1" parent="WIyWlLk6GJQsqaUBKTNV-1" source="l0oDYleAhtw5hOrFRe71-267" target="l0oDYleAhtw5hOrFRe71-270">
          <mxGeometry width="50" height="50" relative="1" as="geometry">
            <mxPoint x="325" y="7030" as="sourcePoint" />
            <mxPoint x="375" y="6980" as="targetPoint" />
            <Array as="points">
              <mxPoint x="355" y="6980" />
            </Array>
          </mxGeometry>
        </mxCell>
        <mxCell id="l0oDYleAhtw5hOrFRe71-282" value="" style="edgeStyle=orthogonalEdgeStyle;rounded=0;orthogonalLoop=1;jettySize=auto;html=1;" edge="1" parent="WIyWlLk6GJQsqaUBKTNV-1" source="l0oDYleAhtw5hOrFRe71-275" target="l0oDYleAhtw5hOrFRe71-278">
          <mxGeometry relative="1" as="geometry" />
        </mxCell>
        <mxCell id="l0oDYleAhtw5hOrFRe71-275" value="Neues Feld: &quot;Wir freuen uns Sie bald offiziell als Schifferstadtler begrüßen zu dürfen. Bleiben Sie gesund.&quot; wird erscheinen" style="rounded=1;whiteSpace=wrap;html=1;" vertex="1" parent="WIyWlLk6GJQsqaUBKTNV-1">
          <mxGeometry x="515" y="7140" width="120" height="100" as="geometry" />
        </mxCell>
        <mxCell id="l0oDYleAhtw5hOrFRe71-277" value="" style="edgeStyle=orthogonalEdgeStyle;rounded=0;orthogonalLoop=1;jettySize=auto;html=1;" edge="1" parent="WIyWlLk6GJQsqaUBKTNV-1" source="l0oDYleAhtw5hOrFRe71-278" target="l0oDYleAhtw5hOrFRe71-280">
          <mxGeometry relative="1" as="geometry" />
        </mxCell>
        <mxCell id="l0oDYleAhtw5hOrFRe71-278" value="Feld erscheint" style="shape=hexagon;perimeter=hexagonPerimeter2;whiteSpace=wrap;html=1;fixedSize=1;" vertex="1" parent="WIyWlLk6GJQsqaUBKTNV-1">
          <mxGeometry x="515" y="7270" width="120" height="80" as="geometry" />
        </mxCell>
        <mxCell id="l0oDYleAhtw5hOrFRe71-279" value="" style="edgeStyle=orthogonalEdgeStyle;rounded=0;orthogonalLoop=1;jettySize=auto;html=1;" edge="1" parent="WIyWlLk6GJQsqaUBKTNV-1" source="l0oDYleAhtw5hOrFRe71-280" target="l0oDYleAhtw5hOrFRe71-281">
          <mxGeometry relative="1" as="geometry" />
        </mxCell>
        <mxCell id="l0oDYleAhtw5hOrFRe71-280" value="Button: &quot;Zurück zur Ummeldungs- Informationen&quot; erscheint" style="rounded=1;whiteSpace=wrap;html=1;" vertex="1" parent="WIyWlLk6GJQsqaUBKTNV-1">
          <mxGeometry x="515" y="7380" width="120" height="60" as="geometry" />
        </mxCell>
        <mxCell id="l0oDYleAhtw5hOrFRe71-281" value="Button gedrückt und zurück auf UmmeldungsSeite" style="shape=hexagon;perimeter=hexagonPerimeter2;whiteSpace=wrap;html=1;fixedSize=1;" vertex="1" parent="WIyWlLk6GJQsqaUBKTNV-1">
          <mxGeometry x="510" y="7470" width="130" height="80" as="geometry" />
        </mxCell>
        <mxCell id="l0oDYleAhtw5hOrFRe71-286" value="" style="edgeStyle=orthogonalEdgeStyle;rounded=0;orthogonalLoop=1;jettySize=auto;html=1;" edge="1" parent="WIyWlLk6GJQsqaUBKTNV-1" source="l0oDYleAhtw5hOrFRe71-283" target="l0oDYleAhtw5hOrFRe71-285">
          <mxGeometry relative="1" as="geometry" />
        </mxCell>
        <mxCell id="l0oDYleAhtw5hOrFRe71-283" value="neues Feld wird erscheinen" style="rounded=1;whiteSpace=wrap;html=1;" vertex="1" parent="WIyWlLk6GJQsqaUBKTNV-1">
          <mxGeometry x="295" y="7140" width="120" height="60" as="geometry" />
        </mxCell>
        <mxCell id="l0oDYleAhtw5hOrFRe71-288" value="" style="edgeStyle=orthogonalEdgeStyle;rounded=0;orthogonalLoop=1;jettySize=auto;html=1;" edge="1" parent="WIyWlLk6GJQsqaUBKTNV-1" source="l0oDYleAhtw5hOrFRe71-285" target="l0oDYleAhtw5hOrFRe71-287">
          <mxGeometry relative="1" as="geometry" />
        </mxCell>
        <mxCell id="l0oDYleAhtw5hOrFRe71-285" value="Feld erscheint" style="shape=hexagon;perimeter=hexagonPerimeter2;whiteSpace=wrap;html=1;fixedSize=1;" vertex="1" parent="WIyWlLk6GJQsqaUBKTNV-1">
          <mxGeometry x="295" y="7230" width="120" height="80" as="geometry" />
        </mxCell>
        <mxCell id="l0oDYleAhtw5hOrFRe71-292" value="" style="edgeStyle=orthogonalEdgeStyle;rounded=0;orthogonalLoop=1;jettySize=auto;html=1;" edge="1" parent="WIyWlLk6GJQsqaUBKTNV-1" source="l0oDYleAhtw5hOrFRe71-287" target="l0oDYleAhtw5hOrFRe71-289">
          <mxGeometry relative="1" as="geometry" />
        </mxCell>
        <mxCell id="l0oDYleAhtw5hOrFRe71-287" value="Passwort kann hier kreiert werden" style="rounded=1;whiteSpace=wrap;html=1;" vertex="1" parent="WIyWlLk6GJQsqaUBKTNV-1">
          <mxGeometry x="295" y="7340" width="120" height="60" as="geometry" />
        </mxCell>
        <mxCell id="l0oDYleAhtw5hOrFRe71-291" value="" style="edgeStyle=orthogonalEdgeStyle;rounded=0;orthogonalLoop=1;jettySize=auto;html=1;" edge="1" parent="WIyWlLk6GJQsqaUBKTNV-1" source="l0oDYleAhtw5hOrFRe71-289" target="l0oDYleAhtw5hOrFRe71-290">
          <mxGeometry relative="1" as="geometry" />
        </mxCell>
        <mxCell id="l0oDYleAhtw5hOrFRe71-289" value="Passwort eingeben und auf &quot;Weiter&quot; klicken" style="shape=hexagon;perimeter=hexagonPerimeter2;whiteSpace=wrap;html=1;fixedSize=1;" vertex="1" parent="WIyWlLk6GJQsqaUBKTNV-1">
          <mxGeometry x="295" y="7430" width="120" height="80" as="geometry" />
        </mxCell>
        <mxCell id="l0oDYleAhtw5hOrFRe71-295" value="" style="edgeStyle=orthogonalEdgeStyle;rounded=0;orthogonalLoop=1;jettySize=auto;html=1;" edge="1" parent="WIyWlLk6GJQsqaUBKTNV-1" source="l0oDYleAhtw5hOrFRe71-290" target="l0oDYleAhtw5hOrFRe71-293">
          <mxGeometry relative="1" as="geometry" />
        </mxCell>
        <mxCell id="l0oDYleAhtw5hOrFRe71-290" value="Passwort wird überprüft, damit es min eine Zahl, Groß-und Kleinbuchstaben hat, min ein Sonderzeichen und nicht den Namen enthält" style="rounded=1;whiteSpace=wrap;html=1;" vertex="1" parent="WIyWlLk6GJQsqaUBKTNV-1">
          <mxGeometry x="295" y="7538.5" width="120" height="111.5" as="geometry" />
        </mxCell>
        <mxCell id="l0oDYleAhtw5hOrFRe71-299" value="" style="edgeStyle=orthogonalEdgeStyle;rounded=0;orthogonalLoop=1;jettySize=auto;html=1;entryX=0.5;entryY=0;entryDx=0;entryDy=0;" edge="1" parent="WIyWlLk6GJQsqaUBKTNV-1" source="l0oDYleAhtw5hOrFRe71-293" target="l0oDYleAhtw5hOrFRe71-297">
          <mxGeometry relative="1" as="geometry" />
        </mxCell>
        <mxCell id="l0oDYleAhtw5hOrFRe71-293" value="Überprüfung zeigt Ergebnis an" style="shape=hexagon;perimeter=hexagonPerimeter2;whiteSpace=wrap;html=1;fixedSize=1;" vertex="1" parent="WIyWlLk6GJQsqaUBKTNV-1">
          <mxGeometry x="295" y="7680" width="120" height="80" as="geometry" />
        </mxCell>
        <mxCell id="l0oDYleAhtw5hOrFRe71-314" value="" style="edgeStyle=orthogonalEdgeStyle;rounded=0;orthogonalLoop=1;jettySize=auto;html=1;" edge="1" parent="WIyWlLk6GJQsqaUBKTNV-1" source="l0oDYleAhtw5hOrFRe71-294" target="l0oDYleAhtw5hOrFRe71-307">
          <mxGeometry relative="1" as="geometry" />
        </mxCell>
        <mxCell id="l0oDYleAhtw5hOrFRe71-294" value="Passwort stimmt NICHT mit Anforderungen überein" style="rounded=1;whiteSpace=wrap;html=1;" vertex="1" parent="WIyWlLk6GJQsqaUBKTNV-1">
          <mxGeometry x="435" y="7780" width="120" height="60" as="geometry" />
        </mxCell>
        <mxCell id="l0oDYleAhtw5hOrFRe71-297" value="" style="rounded=1;whiteSpace=wrap;html=1;" vertex="1" parent="WIyWlLk6GJQsqaUBKTNV-1">
          <mxGeometry x="335" y="7790" width="40" height="40" as="geometry" />
        </mxCell>
        <mxCell id="l0oDYleAhtw5hOrFRe71-300" value="" style="edgeStyle=orthogonalEdgeStyle;rounded=0;orthogonalLoop=1;jettySize=auto;html=1;" edge="1" parent="WIyWlLk6GJQsqaUBKTNV-1" target="l0oDYleAhtw5hOrFRe71-294">
          <mxGeometry relative="1" as="geometry">
            <mxPoint x="375" y="7810" as="sourcePoint" />
          </mxGeometry>
        </mxCell>
        <mxCell id="l0oDYleAhtw5hOrFRe71-302" value="" style="edgeStyle=orthogonalEdgeStyle;rounded=0;orthogonalLoop=1;jettySize=auto;html=1;" edge="1" parent="WIyWlLk6GJQsqaUBKTNV-1" target="l0oDYleAhtw5hOrFRe71-301">
          <mxGeometry relative="1" as="geometry">
            <mxPoint x="335" y="7810" as="sourcePoint" />
          </mxGeometry>
        </mxCell>
        <mxCell id="l0oDYleAhtw5hOrFRe71-298" value="" style="shape=umlDestroy;whiteSpace=wrap;html=1;strokeWidth=3;rounded=1;" vertex="1" parent="WIyWlLk6GJQsqaUBKTNV-1">
          <mxGeometry x="340" y="7795" width="30" height="30" as="geometry" />
        </mxCell>
        <mxCell id="l0oDYleAhtw5hOrFRe71-304" value="" style="edgeStyle=orthogonalEdgeStyle;rounded=0;orthogonalLoop=1;jettySize=auto;html=1;" edge="1" parent="WIyWlLk6GJQsqaUBKTNV-1" source="l0oDYleAhtw5hOrFRe71-301" target="l0oDYleAhtw5hOrFRe71-303">
          <mxGeometry relative="1" as="geometry" />
        </mxCell>
        <mxCell id="l0oDYleAhtw5hOrFRe71-301" value="Passwort stimmt mit Anforderungen überein" style="rounded=1;whiteSpace=wrap;html=1;" vertex="1" parent="WIyWlLk6GJQsqaUBKTNV-1">
          <mxGeometry x="155" y="7780" width="120" height="60" as="geometry" />
        </mxCell>
        <mxCell id="l0oDYleAhtw5hOrFRe71-306" value="" style="edgeStyle=orthogonalEdgeStyle;rounded=0;orthogonalLoop=1;jettySize=auto;html=1;" edge="1" parent="WIyWlLk6GJQsqaUBKTNV-1" source="l0oDYleAhtw5hOrFRe71-303" target="l0oDYleAhtw5hOrFRe71-305">
          <mxGeometry relative="1" as="geometry" />
        </mxCell>
        <mxCell id="l0oDYleAhtw5hOrFRe71-303" value="Passwort wird mit grünem Hacken versehen" style="shape=hexagon;perimeter=hexagonPerimeter2;whiteSpace=wrap;html=1;fixedSize=1;" vertex="1" parent="WIyWlLk6GJQsqaUBKTNV-1">
          <mxGeometry x="155" y="7870" width="120" height="80" as="geometry" />
        </mxCell>
        <mxCell id="l0oDYleAhtw5hOrFRe71-305" value="&quot;Weiter&quot; wird dunkel unterlegt und kann nun geklickt werden" style="rounded=1;whiteSpace=wrap;html=1;" vertex="1" parent="WIyWlLk6GJQsqaUBKTNV-1">
          <mxGeometry x="155" y="7980" width="120" height="60" as="geometry" />
        </mxCell>
        <mxCell id="l0oDYleAhtw5hOrFRe71-313" value="" style="edgeStyle=orthogonalEdgeStyle;rounded=0;orthogonalLoop=1;jettySize=auto;html=1;" edge="1" parent="WIyWlLk6GJQsqaUBKTNV-1" source="l0oDYleAhtw5hOrFRe71-307" target="l0oDYleAhtw5hOrFRe71-308">
          <mxGeometry relative="1" as="geometry" />
        </mxCell>
        <mxCell id="l0oDYleAhtw5hOrFRe71-307" value="Passwort wird mit rotem Kreuz am Ende versehen" style="shape=hexagon;perimeter=hexagonPerimeter2;whiteSpace=wrap;html=1;fixedSize=1;" vertex="1" parent="WIyWlLk6GJQsqaUBKTNV-1">
          <mxGeometry x="435" y="7870" width="120" height="80" as="geometry" />
        </mxCell>
        <mxCell id="l0oDYleAhtw5hOrFRe71-312" value="" style="edgeStyle=orthogonalEdgeStyle;rounded=0;orthogonalLoop=1;jettySize=auto;html=1;" edge="1" parent="WIyWlLk6GJQsqaUBKTNV-1" source="l0oDYleAhtw5hOrFRe71-308" target="l0oDYleAhtw5hOrFRe71-309">
          <mxGeometry relative="1" as="geometry" />
        </mxCell>
        <mxCell id="l0oDYleAhtw5hOrFRe71-308" value="Text erscheint darunter in rot und weißt auf Anforderungen hin" style="rounded=1;whiteSpace=wrap;html=1;" vertex="1" parent="WIyWlLk6GJQsqaUBKTNV-1">
          <mxGeometry x="435" y="7980" width="120" height="60" as="geometry" />
        </mxCell>
        <mxCell id="l0oDYleAhtw5hOrFRe71-311" value="" style="edgeStyle=orthogonalEdgeStyle;rounded=0;orthogonalLoop=1;jettySize=auto;html=1;" edge="1" parent="WIyWlLk6GJQsqaUBKTNV-1" source="l0oDYleAhtw5hOrFRe71-309" target="l0oDYleAhtw5hOrFRe71-310">
          <mxGeometry relative="1" as="geometry" />
        </mxCell>
        <mxCell id="l0oDYleAhtw5hOrFRe71-309" value="Anforderungen werden angezeigt" style="shape=hexagon;perimeter=hexagonPerimeter2;whiteSpace=wrap;html=1;fixedSize=1;" vertex="1" parent="WIyWlLk6GJQsqaUBKTNV-1">
          <mxGeometry x="435" y="8070" width="120" height="80" as="geometry" />
        </mxCell>
        <mxCell id="l0oDYleAhtw5hOrFRe71-316" value="" style="edgeStyle=orthogonalEdgeStyle;rounded=0;orthogonalLoop=1;jettySize=auto;html=1;" edge="1" parent="WIyWlLk6GJQsqaUBKTNV-1" source="l0oDYleAhtw5hOrFRe71-310" target="l0oDYleAhtw5hOrFRe71-315">
          <mxGeometry relative="1" as="geometry" />
        </mxCell>
        <mxCell id="l0oDYleAhtw5hOrFRe71-310" value="Passwort kann/muss hier bearbeitet werden" style="rounded=1;whiteSpace=wrap;html=1;" vertex="1" parent="WIyWlLk6GJQsqaUBKTNV-1">
          <mxGeometry x="435" y="8183" width="120" height="60" as="geometry" />
        </mxCell>
        <mxCell id="l0oDYleAhtw5hOrFRe71-318" value="" style="edgeStyle=orthogonalEdgeStyle;rounded=0;orthogonalLoop=1;jettySize=auto;html=1;" edge="1" parent="WIyWlLk6GJQsqaUBKTNV-1" source="l0oDYleAhtw5hOrFRe71-315" target="l0oDYleAhtw5hOrFRe71-317">
          <mxGeometry relative="1" as="geometry" />
        </mxCell>
        <mxCell id="l0oDYleAhtw5hOrFRe71-315" value="Passwort bearbeitet" style="shape=hexagon;perimeter=hexagonPerimeter2;whiteSpace=wrap;html=1;fixedSize=1;" vertex="1" parent="WIyWlLk6GJQsqaUBKTNV-1">
          <mxGeometry x="435" y="8270" width="120" height="80" as="geometry" />
        </mxCell>
        <mxCell id="l0oDYleAhtw5hOrFRe71-321" value="" style="edgeStyle=orthogonalEdgeStyle;rounded=0;orthogonalLoop=1;jettySize=auto;html=1;" edge="1" parent="WIyWlLk6GJQsqaUBKTNV-1" source="l0oDYleAhtw5hOrFRe71-317" target="l0oDYleAhtw5hOrFRe71-319">
          <mxGeometry relative="1" as="geometry" />
        </mxCell>
        <mxCell id="l0oDYleAhtw5hOrFRe71-317" value="Es kann auf &quot;Weiter&quot; geklickt werden" style="rounded=1;whiteSpace=wrap;html=1;" vertex="1" parent="WIyWlLk6GJQsqaUBKTNV-1">
          <mxGeometry x="435" y="8380" width="120" height="60" as="geometry" />
        </mxCell>
        <mxCell id="l0oDYleAhtw5hOrFRe71-322" value="" style="edgeStyle=orthogonalEdgeStyle;rounded=0;orthogonalLoop=1;jettySize=auto;html=1;" edge="1" parent="WIyWlLk6GJQsqaUBKTNV-1" source="l0oDYleAhtw5hOrFRe71-319" target="l0oDYleAhtw5hOrFRe71-320">
          <mxGeometry relative="1" as="geometry" />
        </mxCell>
        <mxCell id="l0oDYleAhtw5hOrFRe71-319" value="Weiter geklickt" style="shape=hexagon;perimeter=hexagonPerimeter2;whiteSpace=wrap;html=1;fixedSize=1;" vertex="1" parent="WIyWlLk6GJQsqaUBKTNV-1">
          <mxGeometry x="435" y="8470" width="120" height="80" as="geometry" />
        </mxCell>
        <mxCell id="l0oDYleAhtw5hOrFRe71-324" value="" style="edgeStyle=orthogonalEdgeStyle;rounded=0;orthogonalLoop=1;jettySize=auto;html=1;" edge="1" parent="WIyWlLk6GJQsqaUBKTNV-1" source="l0oDYleAhtw5hOrFRe71-320" target="l0oDYleAhtw5hOrFRe71-323">
          <mxGeometry relative="1" as="geometry" />
        </mxCell>
        <mxCell id="l0oDYleAhtw5hOrFRe71-320" value="Passwort wird auf Anforderungen geprüft" style="rounded=1;whiteSpace=wrap;html=1;" vertex="1" parent="WIyWlLk6GJQsqaUBKTNV-1">
          <mxGeometry x="435" y="8580" width="120" height="60" as="geometry" />
        </mxCell>
        <mxCell id="l0oDYleAhtw5hOrFRe71-327" value="" style="edgeStyle=orthogonalEdgeStyle;rounded=0;orthogonalLoop=1;jettySize=auto;html=1;entryX=0.5;entryY=0;entryDx=0;entryDy=0;" edge="1" parent="WIyWlLk6GJQsqaUBKTNV-1" source="l0oDYleAhtw5hOrFRe71-323" target="l0oDYleAhtw5hOrFRe71-325">
          <mxGeometry relative="1" as="geometry" />
        </mxCell>
        <mxCell id="l0oDYleAhtw5hOrFRe71-323" value="Passwort geprüft" style="shape=hexagon;perimeter=hexagonPerimeter2;whiteSpace=wrap;html=1;fixedSize=1;" vertex="1" parent="WIyWlLk6GJQsqaUBKTNV-1">
          <mxGeometry x="435" y="8670" width="120" height="80" as="geometry" />
        </mxCell>
        <mxCell id="l0oDYleAhtw5hOrFRe71-338" value="" style="edgeStyle=orthogonalEdgeStyle;rounded=0;orthogonalLoop=1;jettySize=auto;html=1;" edge="1" parent="WIyWlLk6GJQsqaUBKTNV-1" source="l0oDYleAhtw5hOrFRe71-325" target="l0oDYleAhtw5hOrFRe71-328">
          <mxGeometry relative="1" as="geometry" />
        </mxCell>
        <mxCell id="l0oDYleAhtw5hOrFRe71-339" value="" style="edgeStyle=orthogonalEdgeStyle;rounded=0;orthogonalLoop=1;jettySize=auto;html=1;" edge="1" parent="WIyWlLk6GJQsqaUBKTNV-1" source="l0oDYleAhtw5hOrFRe71-325" target="l0oDYleAhtw5hOrFRe71-329">
          <mxGeometry relative="1" as="geometry" />
        </mxCell>
        <mxCell id="l0oDYleAhtw5hOrFRe71-325" value="" style="rounded=1;whiteSpace=wrap;html=1;" vertex="1" parent="WIyWlLk6GJQsqaUBKTNV-1">
          <mxGeometry x="475" y="8780" width="40" height="40" as="geometry" />
        </mxCell>
        <mxCell id="l0oDYleAhtw5hOrFRe71-326" value="" style="shape=umlDestroy;whiteSpace=wrap;html=1;strokeWidth=3;rounded=1;" vertex="1" parent="WIyWlLk6GJQsqaUBKTNV-1">
          <mxGeometry x="480" y="8785" width="30" height="30" as="geometry" />
        </mxCell>
        <mxCell id="l0oDYleAhtw5hOrFRe71-333" value="" style="edgeStyle=orthogonalEdgeStyle;rounded=0;orthogonalLoop=1;jettySize=auto;html=1;" edge="1" parent="WIyWlLk6GJQsqaUBKTNV-1" source="l0oDYleAhtw5hOrFRe71-328" target="l0oDYleAhtw5hOrFRe71-332">
          <mxGeometry relative="1" as="geometry" />
        </mxCell>
        <mxCell id="l0oDYleAhtw5hOrFRe71-328" value="Passwort stimmt mit den Anforderungen überein" style="rounded=1;whiteSpace=wrap;html=1;" vertex="1" parent="WIyWlLk6GJQsqaUBKTNV-1">
          <mxGeometry x="315" y="8770" width="120" height="60" as="geometry" />
        </mxCell>
        <mxCell id="l0oDYleAhtw5hOrFRe71-329" value="Passwort stimmt nicht mit den Anforderungen überein" style="rounded=1;whiteSpace=wrap;html=1;" vertex="1" parent="WIyWlLk6GJQsqaUBKTNV-1">
          <mxGeometry x="555" y="8770" width="120" height="60" as="geometry" />
        </mxCell>
        <mxCell id="l0oDYleAhtw5hOrFRe71-331" value="REPEAT" style="text;html=1;strokeColor=none;fillColor=none;align=center;verticalAlign=middle;whiteSpace=wrap;rounded=0;" vertex="1" parent="WIyWlLk6GJQsqaUBKTNV-1">
          <mxGeometry x="595" y="8840" width="40" height="20" as="geometry" />
        </mxCell>
        <mxCell id="l0oDYleAhtw5hOrFRe71-336" value="" style="edgeStyle=orthogonalEdgeStyle;rounded=0;orthogonalLoop=1;jettySize=auto;html=1;" edge="1" parent="WIyWlLk6GJQsqaUBKTNV-1" source="l0oDYleAhtw5hOrFRe71-332" target="l0oDYleAhtw5hOrFRe71-334">
          <mxGeometry relative="1" as="geometry" />
        </mxCell>
        <mxCell id="l0oDYleAhtw5hOrFRe71-332" value="Passwort wird mit grünem Hacken versehen" style="shape=hexagon;perimeter=hexagonPerimeter2;whiteSpace=wrap;html=1;fixedSize=1;" vertex="1" parent="WIyWlLk6GJQsqaUBKTNV-1">
          <mxGeometry x="315" y="8860" width="120" height="80" as="geometry" />
        </mxCell>
        <mxCell id="l0oDYleAhtw5hOrFRe71-334" value="&quot;Weiter wird dunkel eingefärbt werden" style="rounded=1;whiteSpace=wrap;html=1;" vertex="1" parent="WIyWlLk6GJQsqaUBKTNV-1">
          <mxGeometry x="315" y="8970" width="120" height="60" as="geometry" />
        </mxCell>
        <mxCell id="l0oDYleAhtw5hOrFRe71-335" value="" style="endArrow=classic;html=1;exitX=0.5;exitY=1;exitDx=0;exitDy=0;" edge="1" parent="WIyWlLk6GJQsqaUBKTNV-1" source="l0oDYleAhtw5hOrFRe71-305">
          <mxGeometry width="50" height="50" relative="1" as="geometry">
            <mxPoint x="395" y="8270" as="sourcePoint" />
            <mxPoint x="235" y="9000" as="targetPoint" />
            <Array as="points">
              <mxPoint x="215" y="9000" />
            </Array>
          </mxGeometry>
        </mxCell>
        <mxCell id="l0oDYleAhtw5hOrFRe71-337" value="" style="endArrow=classic;html=1;exitX=0;exitY=0.5;exitDx=0;exitDy=0;" edge="1" parent="WIyWlLk6GJQsqaUBKTNV-1" source="l0oDYleAhtw5hOrFRe71-334">
          <mxGeometry width="50" height="50" relative="1" as="geometry">
            <mxPoint x="265" y="9050" as="sourcePoint" />
            <mxPoint x="275" y="9000" as="targetPoint" />
          </mxGeometry>
        </mxCell>
        <mxCell id="l0oDYleAhtw5hOrFRe71-340" value="" style="rounded=1;whiteSpace=wrap;html=1;" vertex="1" parent="WIyWlLk6GJQsqaUBKTNV-1">
          <mxGeometry x="235" y="8980" width="40" height="40" as="geometry" />
        </mxCell>
        <mxCell id="l0oDYleAhtw5hOrFRe71-344" value="" style="edgeStyle=orthogonalEdgeStyle;rounded=0;orthogonalLoop=1;jettySize=auto;html=1;" edge="1" parent="WIyWlLk6GJQsqaUBKTNV-1" target="l0oDYleAhtw5hOrFRe71-342">
          <mxGeometry relative="1" as="geometry">
            <mxPoint x="255" y="9020" as="sourcePoint" />
          </mxGeometry>
        </mxCell>
        <mxCell id="l0oDYleAhtw5hOrFRe71-341" value="" style="shape=umlDestroy;whiteSpace=wrap;html=1;strokeWidth=3;rounded=1;" vertex="1" parent="WIyWlLk6GJQsqaUBKTNV-1">
          <mxGeometry x="240" y="8985" width="30" height="30" as="geometry" />
        </mxCell>
        <mxCell id="l0oDYleAhtw5hOrFRe71-345" value="" style="edgeStyle=orthogonalEdgeStyle;rounded=0;orthogonalLoop=1;jettySize=auto;html=1;" edge="1" parent="WIyWlLk6GJQsqaUBKTNV-1" source="l0oDYleAhtw5hOrFRe71-342" target="l0oDYleAhtw5hOrFRe71-343">
          <mxGeometry relative="1" as="geometry" />
        </mxCell>
        <mxCell id="l0oDYleAhtw5hOrFRe71-342" value="Weiter wird gedrückt und &lt;br&gt;AGB´s erscheinen" style="shape=hexagon;perimeter=hexagonPerimeter2;whiteSpace=wrap;html=1;fixedSize=1;" vertex="1" parent="WIyWlLk6GJQsqaUBKTNV-1">
          <mxGeometry x="190" y="9040" width="130" height="80" as="geometry" />
        </mxCell>
        <mxCell id="l0oDYleAhtw5hOrFRe71-349" value="" style="edgeStyle=orthogonalEdgeStyle;rounded=0;orthogonalLoop=1;jettySize=auto;html=1;" edge="1" parent="WIyWlLk6GJQsqaUBKTNV-1" source="l0oDYleAhtw5hOrFRe71-343" target="l0oDYleAhtw5hOrFRe71-346">
          <mxGeometry relative="1" as="geometry" />
        </mxCell>
        <mxCell id="l0oDYleAhtw5hOrFRe71-343" value="AGB´s werden mit nach unten scrollen gelesen" style="rounded=1;whiteSpace=wrap;html=1;" vertex="1" parent="WIyWlLk6GJQsqaUBKTNV-1">
          <mxGeometry x="195" y="9150" width="120" height="60" as="geometry" />
        </mxCell>
        <mxCell id="l0oDYleAhtw5hOrFRe71-348" value="" style="edgeStyle=orthogonalEdgeStyle;rounded=0;orthogonalLoop=1;jettySize=auto;html=1;" edge="1" parent="WIyWlLk6GJQsqaUBKTNV-1" source="l0oDYleAhtw5hOrFRe71-346" target="l0oDYleAhtw5hOrFRe71-347">
          <mxGeometry relative="1" as="geometry" />
        </mxCell>
        <mxCell id="l0oDYleAhtw5hOrFRe71-346" value="AGB´s am Ende / wurden gelesen" style="shape=hexagon;perimeter=hexagonPerimeter2;whiteSpace=wrap;html=1;fixedSize=1;" vertex="1" parent="WIyWlLk6GJQsqaUBKTNV-1">
          <mxGeometry x="190" y="9240" width="130" height="80" as="geometry" />
        </mxCell>
        <mxCell id="l0oDYleAhtw5hOrFRe71-355" value="" style="edgeStyle=orthogonalEdgeStyle;rounded=0;orthogonalLoop=1;jettySize=auto;html=1;entryX=0.5;entryY=0;entryDx=0;entryDy=0;" edge="1" parent="WIyWlLk6GJQsqaUBKTNV-1" source="l0oDYleAhtw5hOrFRe71-347" target="l0oDYleAhtw5hOrFRe71-352">
          <mxGeometry relative="1" as="geometry" />
        </mxCell>
        <mxCell id="l0oDYleAhtw5hOrFRe71-347" value="AGB`s nun angenommen (&quot;Annehmen&quot;) oder abgelehnt (&quot;Ablehnen&quot;) werden" style="rounded=1;whiteSpace=wrap;html=1;" vertex="1" parent="WIyWlLk6GJQsqaUBKTNV-1">
          <mxGeometry x="197.5" y="9352" width="115" height="78" as="geometry" />
        </mxCell>
        <mxCell id="l0oDYleAhtw5hOrFRe71-360" value="" style="edgeStyle=orthogonalEdgeStyle;rounded=0;orthogonalLoop=1;jettySize=auto;html=1;" edge="1" parent="WIyWlLk6GJQsqaUBKTNV-1" source="l0oDYleAhtw5hOrFRe71-350" target="l0oDYleAhtw5hOrFRe71-359">
          <mxGeometry relative="1" as="geometry" />
        </mxCell>
        <mxCell id="l0oDYleAhtw5hOrFRe71-350" value="AGB´s abgelehnt" style="shape=hexagon;perimeter=hexagonPerimeter2;whiteSpace=wrap;html=1;fixedSize=1;" vertex="1" parent="WIyWlLk6GJQsqaUBKTNV-1">
          <mxGeometry x="315" y="9440" width="130" height="80" as="geometry" />
        </mxCell>
        <mxCell id="l0oDYleAhtw5hOrFRe71-352" value="" style="rounded=1;whiteSpace=wrap;html=1;" vertex="1" parent="WIyWlLk6GJQsqaUBKTNV-1">
          <mxGeometry x="235" y="9460" width="40" height="40" as="geometry" />
        </mxCell>
        <mxCell id="l0oDYleAhtw5hOrFRe71-356" value="" style="edgeStyle=orthogonalEdgeStyle;rounded=0;orthogonalLoop=1;jettySize=auto;html=1;" edge="1" parent="WIyWlLk6GJQsqaUBKTNV-1" target="l0oDYleAhtw5hOrFRe71-350">
          <mxGeometry relative="1" as="geometry">
            <mxPoint x="275" y="9480" as="sourcePoint" />
          </mxGeometry>
        </mxCell>
        <mxCell id="l0oDYleAhtw5hOrFRe71-358" value="" style="edgeStyle=orthogonalEdgeStyle;rounded=0;orthogonalLoop=1;jettySize=auto;html=1;" edge="1" parent="WIyWlLk6GJQsqaUBKTNV-1" target="l0oDYleAhtw5hOrFRe71-357">
          <mxGeometry relative="1" as="geometry">
            <mxPoint x="235" y="9480" as="sourcePoint" />
          </mxGeometry>
        </mxCell>
        <mxCell id="l0oDYleAhtw5hOrFRe71-353" value="" style="shape=umlDestroy;whiteSpace=wrap;html=1;strokeWidth=3;rounded=1;" vertex="1" parent="WIyWlLk6GJQsqaUBKTNV-1">
          <mxGeometry x="240" y="9465" width="30" height="30" as="geometry" />
        </mxCell>
        <mxCell id="l0oDYleAhtw5hOrFRe71-357" value="AGB´s agenommen" style="shape=hexagon;perimeter=hexagonPerimeter2;whiteSpace=wrap;html=1;fixedSize=1;" vertex="1" parent="WIyWlLk6GJQsqaUBKTNV-1">
          <mxGeometry x="65" y="9440" width="130" height="80" as="geometry" />
        </mxCell>
        <mxCell id="l0oDYleAhtw5hOrFRe71-391" value="" style="edgeStyle=orthogonalEdgeStyle;rounded=0;orthogonalLoop=1;jettySize=auto;html=1;" edge="1" parent="WIyWlLk6GJQsqaUBKTNV-1" source="l0oDYleAhtw5hOrFRe71-359" target="l0oDYleAhtw5hOrFRe71-361">
          <mxGeometry relative="1" as="geometry" />
        </mxCell>
        <mxCell id="l0oDYleAhtw5hOrFRe71-359" value="Verweis wird erscheinen: &quot;Falls Sie die AGB´s ablehnen, können wir Ihnen leider kein Konto bei uns anlegen." style="rounded=1;whiteSpace=wrap;html=1;" vertex="1" parent="WIyWlLk6GJQsqaUBKTNV-1">
          <mxGeometry x="323.75" y="9550" width="112.5" height="100" as="geometry" />
        </mxCell>
        <mxCell id="l0oDYleAhtw5hOrFRe71-366" value="" style="edgeStyle=orthogonalEdgeStyle;rounded=0;orthogonalLoop=1;jettySize=auto;html=1;entryX=0.501;entryY=0;entryDx=0;entryDy=0;entryPerimeter=0;" edge="1" parent="WIyWlLk6GJQsqaUBKTNV-1" source="l0oDYleAhtw5hOrFRe71-361" target="l0oDYleAhtw5hOrFRe71-364">
          <mxGeometry relative="1" as="geometry" />
        </mxCell>
        <mxCell id="l0oDYleAhtw5hOrFRe71-361" value="Verweis erscheint" style="shape=hexagon;perimeter=hexagonPerimeter2;whiteSpace=wrap;html=1;fixedSize=1;" vertex="1" parent="WIyWlLk6GJQsqaUBKTNV-1">
          <mxGeometry x="315" y="9680" width="130" height="80" as="geometry" />
        </mxCell>
        <mxCell id="l0oDYleAhtw5hOrFRe71-370" value="" style="edgeStyle=orthogonalEdgeStyle;rounded=0;orthogonalLoop=1;jettySize=auto;html=1;" edge="1" parent="WIyWlLk6GJQsqaUBKTNV-1" source="l0oDYleAhtw5hOrFRe71-362" target="l0oDYleAhtw5hOrFRe71-369">
          <mxGeometry relative="1" as="geometry" />
        </mxCell>
        <mxCell id="l0oDYleAhtw5hOrFRe71-362" value="Mit &quot;Ich möchte KEIN Kundenkonto&quot; bestätigen" style="rounded=1;whiteSpace=wrap;html=1;" vertex="1" parent="WIyWlLk6GJQsqaUBKTNV-1">
          <mxGeometry x="617.5" y="9780" width="120" height="60" as="geometry" />
        </mxCell>
        <mxCell id="l0oDYleAhtw5hOrFRe71-372" value="" style="edgeStyle=orthogonalEdgeStyle;rounded=0;orthogonalLoop=1;jettySize=auto;html=1;" edge="1" parent="WIyWlLk6GJQsqaUBKTNV-1" source="l0oDYleAhtw5hOrFRe71-363" target="l0oDYleAhtw5hOrFRe71-371">
          <mxGeometry relative="1" as="geometry" />
        </mxCell>
        <mxCell id="l0oDYleAhtw5hOrFRe71-363" value="Mit &quot;zurück zu den AGB´s&quot; können AGBs nochmal bestätigt (oder abgelehnt werden)" style="rounded=1;whiteSpace=wrap;html=1;" vertex="1" parent="WIyWlLk6GJQsqaUBKTNV-1">
          <mxGeometry x="320" y="9860" width="120" height="80" as="geometry" />
        </mxCell>
        <mxCell id="l0oDYleAhtw5hOrFRe71-364" value="" style="rounded=1;whiteSpace=wrap;html=1;" vertex="1" parent="WIyWlLk6GJQsqaUBKTNV-1">
          <mxGeometry x="360" y="9790" width="40" height="40" as="geometry" />
        </mxCell>
        <mxCell id="l0oDYleAhtw5hOrFRe71-368" value="" style="edgeStyle=orthogonalEdgeStyle;rounded=0;orthogonalLoop=1;jettySize=auto;html=1;" edge="1" parent="WIyWlLk6GJQsqaUBKTNV-1" target="l0oDYleAhtw5hOrFRe71-363">
          <mxGeometry relative="1" as="geometry">
            <mxPoint x="380" y="9830" as="sourcePoint" />
          </mxGeometry>
        </mxCell>
        <mxCell id="l0oDYleAhtw5hOrFRe71-365" value="" style="shape=umlDestroy;whiteSpace=wrap;html=1;strokeWidth=3;rounded=1;" vertex="1" parent="WIyWlLk6GJQsqaUBKTNV-1">
          <mxGeometry x="365" y="9795" width="30" height="30" as="geometry" />
        </mxCell>
        <mxCell id="l0oDYleAhtw5hOrFRe71-381" value="" style="edgeStyle=orthogonalEdgeStyle;rounded=0;orthogonalLoop=1;jettySize=auto;html=1;" edge="1" parent="WIyWlLk6GJQsqaUBKTNV-1" source="l0oDYleAhtw5hOrFRe71-369" target="l0oDYleAhtw5hOrFRe71-375">
          <mxGeometry relative="1" as="geometry" />
        </mxCell>
        <mxCell id="l0oDYleAhtw5hOrFRe71-369" value="Neues Feld erscheint" style="shape=hexagon;perimeter=hexagonPerimeter2;whiteSpace=wrap;html=1;fixedSize=1;" vertex="1" parent="WIyWlLk6GJQsqaUBKTNV-1">
          <mxGeometry x="612.5" y="9870" width="130" height="80" as="geometry" />
        </mxCell>
        <mxCell id="l0oDYleAhtw5hOrFRe71-387" value="" style="edgeStyle=orthogonalEdgeStyle;rounded=0;orthogonalLoop=1;jettySize=auto;html=1;" edge="1" parent="WIyWlLk6GJQsqaUBKTNV-1" source="l0oDYleAhtw5hOrFRe71-371" target="l0oDYleAhtw5hOrFRe71-386">
          <mxGeometry relative="1" as="geometry" />
        </mxCell>
        <mxCell id="l0oDYleAhtw5hOrFRe71-371" value="AGB´s erscheinen (wieder)" style="shape=hexagon;perimeter=hexagonPerimeter2;whiteSpace=wrap;html=1;fixedSize=1;" vertex="1" parent="WIyWlLk6GJQsqaUBKTNV-1">
          <mxGeometry x="315" y="9970" width="130" height="80" as="geometry" />
        </mxCell>
        <mxCell id="l0oDYleAhtw5hOrFRe71-374" value="" style="edgeStyle=orthogonalEdgeStyle;rounded=0;orthogonalLoop=1;jettySize=auto;html=1;" edge="1" parent="WIyWlLk6GJQsqaUBKTNV-1" source="l0oDYleAhtw5hOrFRe71-375" target="l0oDYleAhtw5hOrFRe71-377">
          <mxGeometry relative="1" as="geometry" />
        </mxCell>
        <mxCell id="l0oDYleAhtw5hOrFRe71-375" value="Neues Feld: &quot;Wir freuen uns Sie bald offiziell als Schifferstadtler begrüßen zu dürfen. Bleiben Sie gesund.&quot; wird erscheinen" style="rounded=1;whiteSpace=wrap;html=1;" vertex="1" parent="WIyWlLk6GJQsqaUBKTNV-1">
          <mxGeometry x="617.5" y="9980" width="120" height="100" as="geometry" />
        </mxCell>
        <mxCell id="l0oDYleAhtw5hOrFRe71-376" value="" style="edgeStyle=orthogonalEdgeStyle;rounded=0;orthogonalLoop=1;jettySize=auto;html=1;" edge="1" parent="WIyWlLk6GJQsqaUBKTNV-1" source="l0oDYleAhtw5hOrFRe71-377" target="l0oDYleAhtw5hOrFRe71-379">
          <mxGeometry relative="1" as="geometry" />
        </mxCell>
        <mxCell id="l0oDYleAhtw5hOrFRe71-377" value="Feld erscheint" style="shape=hexagon;perimeter=hexagonPerimeter2;whiteSpace=wrap;html=1;fixedSize=1;" vertex="1" parent="WIyWlLk6GJQsqaUBKTNV-1">
          <mxGeometry x="617.5" y="10110" width="120" height="80" as="geometry" />
        </mxCell>
        <mxCell id="l0oDYleAhtw5hOrFRe71-378" value="" style="edgeStyle=orthogonalEdgeStyle;rounded=0;orthogonalLoop=1;jettySize=auto;html=1;" edge="1" parent="WIyWlLk6GJQsqaUBKTNV-1" source="l0oDYleAhtw5hOrFRe71-379" target="l0oDYleAhtw5hOrFRe71-380">
          <mxGeometry relative="1" as="geometry" />
        </mxCell>
        <mxCell id="l0oDYleAhtw5hOrFRe71-379" value="Button: &quot;Zurück zur Ummeldungs- Informationen&quot; erscheint" style="rounded=1;whiteSpace=wrap;html=1;" vertex="1" parent="WIyWlLk6GJQsqaUBKTNV-1">
          <mxGeometry x="617.5" y="10220" width="120" height="60" as="geometry" />
        </mxCell>
        <mxCell id="l0oDYleAhtw5hOrFRe71-380" value="Button gedrückt und zurück auf UmmeldungsSeite" style="shape=hexagon;perimeter=hexagonPerimeter2;whiteSpace=wrap;html=1;fixedSize=1;" vertex="1" parent="WIyWlLk6GJQsqaUBKTNV-1">
          <mxGeometry x="612.5" y="10310" width="130" height="80" as="geometry" />
        </mxCell>
        <mxCell id="l0oDYleAhtw5hOrFRe71-382" value="ENDE" style="text;html=1;strokeColor=none;fillColor=none;align=center;verticalAlign=middle;whiteSpace=wrap;rounded=0;" vertex="1" parent="WIyWlLk6GJQsqaUBKTNV-1">
          <mxGeometry x="555" y="7560" width="40" height="20" as="geometry" />
        </mxCell>
        <mxCell id="l0oDYleAhtw5hOrFRe71-383" value="ENDE" style="text;html=1;strokeColor=none;fillColor=none;align=center;verticalAlign=middle;whiteSpace=wrap;rounded=0;" vertex="1" parent="WIyWlLk6GJQsqaUBKTNV-1">
          <mxGeometry x="695" y="6970" width="40" height="20" as="geometry" />
        </mxCell>
        <mxCell id="l0oDYleAhtw5hOrFRe71-384" value="ENDE" style="text;html=1;strokeColor=none;fillColor=none;align=center;verticalAlign=middle;whiteSpace=wrap;rounded=0;" vertex="1" parent="WIyWlLk6GJQsqaUBKTNV-1">
          <mxGeometry x="115" y="6680" width="40" height="20" as="geometry" />
        </mxCell>
        <mxCell id="l0oDYleAhtw5hOrFRe71-385" value="ENDE" style="text;html=1;strokeColor=none;fillColor=none;align=center;verticalAlign=middle;whiteSpace=wrap;rounded=0;" vertex="1" parent="WIyWlLk6GJQsqaUBKTNV-1">
          <mxGeometry x="657.5" y="10400" width="40" height="20" as="geometry" />
        </mxCell>
        <mxCell id="l0oDYleAhtw5hOrFRe71-392" value="" style="edgeStyle=orthogonalEdgeStyle;rounded=0;orthogonalLoop=1;jettySize=auto;html=1;" edge="1" parent="WIyWlLk6GJQsqaUBKTNV-1" source="l0oDYleAhtw5hOrFRe71-386" target="l0oDYleAhtw5hOrFRe71-389">
          <mxGeometry relative="1" as="geometry" />
        </mxCell>
        <mxCell id="l0oDYleAhtw5hOrFRe71-386" value="AGB´s werden mit nach unten scrollen gelesen" style="rounded=1;whiteSpace=wrap;html=1;" vertex="1" parent="WIyWlLk6GJQsqaUBKTNV-1">
          <mxGeometry x="320" y="10080" width="120" height="60" as="geometry" />
        </mxCell>
        <mxCell id="l0oDYleAhtw5hOrFRe71-393" value="" style="edgeStyle=orthogonalEdgeStyle;rounded=0;orthogonalLoop=1;jettySize=auto;html=1;" edge="1" parent="WIyWlLk6GJQsqaUBKTNV-1" source="l0oDYleAhtw5hOrFRe71-389" target="l0oDYleAhtw5hOrFRe71-390">
          <mxGeometry relative="1" as="geometry" />
        </mxCell>
        <mxCell id="l0oDYleAhtw5hOrFRe71-389" value="AGB`s am Ende" style="shape=hexagon;perimeter=hexagonPerimeter2;whiteSpace=wrap;html=1;fixedSize=1;" vertex="1" parent="WIyWlLk6GJQsqaUBKTNV-1">
          <mxGeometry x="315" y="10170" width="130" height="80" as="geometry" />
        </mxCell>
        <mxCell id="l0oDYleAhtw5hOrFRe71-402" value="" style="edgeStyle=orthogonalEdgeStyle;rounded=0;orthogonalLoop=1;jettySize=auto;html=1;entryX=0.5;entryY=0;entryDx=0;entryDy=0;" edge="1" parent="WIyWlLk6GJQsqaUBKTNV-1" source="l0oDYleAhtw5hOrFRe71-390" target="l0oDYleAhtw5hOrFRe71-398">
          <mxGeometry relative="1" as="geometry" />
        </mxCell>
        <mxCell id="l0oDYleAhtw5hOrFRe71-390" value="AGB`s können nun angenommen (&quot;Annehmen&quot;) oder abgelehnt (&quot;Ablehnen&quot;) werden" style="rounded=1;whiteSpace=wrap;html=1;" vertex="1" parent="WIyWlLk6GJQsqaUBKTNV-1">
          <mxGeometry x="320" y="10280" width="120" height="70" as="geometry" />
        </mxCell>
        <mxCell id="l0oDYleAhtw5hOrFRe71-394" value="AGB`s abgelehnt" style="shape=hexagon;perimeter=hexagonPerimeter2;whiteSpace=wrap;html=1;fixedSize=1;" vertex="1" parent="WIyWlLk6GJQsqaUBKTNV-1">
          <mxGeometry x="440" y="10380" width="130" height="80" as="geometry" />
        </mxCell>
        <mxCell id="l0oDYleAhtw5hOrFRe71-395" value="AGB`s angenommen" style="shape=hexagon;perimeter=hexagonPerimeter2;whiteSpace=wrap;html=1;fixedSize=1;" vertex="1" parent="WIyWlLk6GJQsqaUBKTNV-1">
          <mxGeometry x="190" y="10380" width="130" height="80" as="geometry" />
        </mxCell>
        <mxCell id="l0oDYleAhtw5hOrFRe71-397" value="" style="endArrow=classic;html=1;exitX=1;exitY=0.5;exitDx=0;exitDy=0;entryX=0;entryY=0.5;entryDx=0;entryDy=0;" edge="1" parent="WIyWlLk6GJQsqaUBKTNV-1" source="l0oDYleAhtw5hOrFRe71-364" target="l0oDYleAhtw5hOrFRe71-362">
          <mxGeometry width="50" height="50" relative="1" as="geometry">
            <mxPoint x="515" y="9920" as="sourcePoint" />
            <mxPoint x="565" y="9870" as="targetPoint" />
          </mxGeometry>
        </mxCell>
        <mxCell id="l0oDYleAhtw5hOrFRe71-404" value="" style="edgeStyle=orthogonalEdgeStyle;rounded=0;orthogonalLoop=1;jettySize=auto;html=1;" edge="1" parent="WIyWlLk6GJQsqaUBKTNV-1" target="l0oDYleAhtw5hOrFRe71-395">
          <mxGeometry relative="1" as="geometry">
            <mxPoint x="360" y="10420" as="sourcePoint" />
          </mxGeometry>
        </mxCell>
        <mxCell id="l0oDYleAhtw5hOrFRe71-398" value="" style="rounded=1;whiteSpace=wrap;html=1;" vertex="1" parent="WIyWlLk6GJQsqaUBKTNV-1">
          <mxGeometry x="360" y="10400" width="40" height="40" as="geometry" />
        </mxCell>
        <mxCell id="l0oDYleAhtw5hOrFRe71-400" value="" style="edgeStyle=orthogonalEdgeStyle;rounded=0;orthogonalLoop=1;jettySize=auto;html=1;exitX=1;exitY=0.5;exitDx=0;exitDy=0;" edge="1" parent="WIyWlLk6GJQsqaUBKTNV-1" source="l0oDYleAhtw5hOrFRe71-398" target="l0oDYleAhtw5hOrFRe71-394">
          <mxGeometry relative="1" as="geometry">
            <mxPoint x="405" y="10420" as="sourcePoint" />
          </mxGeometry>
        </mxCell>
        <mxCell id="l0oDYleAhtw5hOrFRe71-401" value="" style="edgeStyle=orthogonalEdgeStyle;rounded=0;orthogonalLoop=1;jettySize=auto;html=1;" edge="1" parent="WIyWlLk6GJQsqaUBKTNV-1" target="l0oDYleAhtw5hOrFRe71-395">
          <mxGeometry relative="1" as="geometry">
            <mxPoint x="355" y="10420" as="sourcePoint" />
          </mxGeometry>
        </mxCell>
        <mxCell id="l0oDYleAhtw5hOrFRe71-399" value="" style="shape=umlDestroy;whiteSpace=wrap;html=1;strokeWidth=3;rounded=1;" vertex="1" parent="WIyWlLk6GJQsqaUBKTNV-1">
          <mxGeometry x="365" y="10405" width="30" height="30" as="geometry" />
        </mxCell>
        <mxCell id="l0oDYleAhtw5hOrFRe71-405" value="REPEAt" style="text;html=1;strokeColor=none;fillColor=none;align=center;verticalAlign=middle;whiteSpace=wrap;rounded=0;" vertex="1" parent="WIyWlLk6GJQsqaUBKTNV-1">
          <mxGeometry x="480" y="10470" width="40" height="20" as="geometry" />
        </mxCell>
        <mxCell id="l0oDYleAhtw5hOrFRe71-406" value="" style="endArrow=classic;html=1;exitX=0.5;exitY=1;exitDx=0;exitDy=0;" edge="1" parent="WIyWlLk6GJQsqaUBKTNV-1" source="l0oDYleAhtw5hOrFRe71-357">
          <mxGeometry width="50" height="50" relative="1" as="geometry">
            <mxPoint x="185" y="9780" as="sourcePoint" />
            <mxPoint x="195" y="10520.588235294117" as="targetPoint" />
            <Array as="points">
              <mxPoint x="135" y="10521" />
            </Array>
          </mxGeometry>
        </mxCell>
        <mxCell id="l0oDYleAhtw5hOrFRe71-407" value="" style="endArrow=classic;html=1;exitX=0.5;exitY=1;exitDx=0;exitDy=0;" edge="1" parent="WIyWlLk6GJQsqaUBKTNV-1" source="l0oDYleAhtw5hOrFRe71-395">
          <mxGeometry width="50" height="50" relative="1" as="geometry">
            <mxPoint x="185" y="10390" as="sourcePoint" />
            <mxPoint x="235" y="10520" as="targetPoint" />
            <Array as="points">
              <mxPoint x="255" y="10520" />
            </Array>
          </mxGeometry>
        </mxCell>
        <mxCell id="l0oDYleAhtw5hOrFRe71-411" value="" style="edgeStyle=orthogonalEdgeStyle;rounded=0;orthogonalLoop=1;jettySize=auto;html=1;" edge="1" parent="WIyWlLk6GJQsqaUBKTNV-1" source="l0oDYleAhtw5hOrFRe71-408" target="l0oDYleAhtw5hOrFRe71-410">
          <mxGeometry relative="1" as="geometry" />
        </mxCell>
        <mxCell id="l0oDYleAhtw5hOrFRe71-408" value="" style="rounded=1;whiteSpace=wrap;html=1;" vertex="1" parent="WIyWlLk6GJQsqaUBKTNV-1">
          <mxGeometry x="195" y="10500" width="40" height="40" as="geometry" />
        </mxCell>
        <mxCell id="l0oDYleAhtw5hOrFRe71-409" value="" style="shape=umlDestroy;whiteSpace=wrap;html=1;strokeWidth=3;rounded=1;" vertex="1" parent="WIyWlLk6GJQsqaUBKTNV-1">
          <mxGeometry x="200" y="10505" width="30" height="30" as="geometry" />
        </mxCell>
        <mxCell id="l0oDYleAhtw5hOrFRe71-413" value="" style="edgeStyle=orthogonalEdgeStyle;rounded=0;orthogonalLoop=1;jettySize=auto;html=1;" edge="1" parent="WIyWlLk6GJQsqaUBKTNV-1" source="l0oDYleAhtw5hOrFRe71-410" target="l0oDYleAhtw5hOrFRe71-412">
          <mxGeometry relative="1" as="geometry" />
        </mxCell>
        <mxCell id="l0oDYleAhtw5hOrFRe71-410" value="&quot;Kundenkonto erstellen&quot;-Button wird eingefärbt und kann ab jetzt gedrückt werden" style="rounded=1;whiteSpace=wrap;html=1;" vertex="1" parent="WIyWlLk6GJQsqaUBKTNV-1">
          <mxGeometry x="155" y="10570" width="120" height="70" as="geometry" />
        </mxCell>
        <mxCell id="l0oDYleAhtw5hOrFRe71-415" value="" style="edgeStyle=orthogonalEdgeStyle;rounded=0;orthogonalLoop=1;jettySize=auto;html=1;" edge="1" parent="WIyWlLk6GJQsqaUBKTNV-1" source="l0oDYleAhtw5hOrFRe71-412" target="l0oDYleAhtw5hOrFRe71-414">
          <mxGeometry relative="1" as="geometry" />
        </mxCell>
        <mxCell id="l0oDYleAhtw5hOrFRe71-412" value="Button wird gedrückt" style="shape=hexagon;perimeter=hexagonPerimeter2;whiteSpace=wrap;html=1;fixedSize=1;" vertex="1" parent="WIyWlLk6GJQsqaUBKTNV-1">
          <mxGeometry x="150" y="10670" width="130" height="80" as="geometry" />
        </mxCell>
        <mxCell id="l0oDYleAhtw5hOrFRe71-420" value="" style="edgeStyle=orthogonalEdgeStyle;rounded=0;orthogonalLoop=1;jettySize=auto;html=1;entryX=0.5;entryY=0;entryDx=0;entryDy=0;" edge="1" parent="WIyWlLk6GJQsqaUBKTNV-1" source="l0oDYleAhtw5hOrFRe71-414" target="l0oDYleAhtw5hOrFRe71-418">
          <mxGeometry relative="1" as="geometry" />
        </mxCell>
        <mxCell id="l0oDYleAhtw5hOrFRe71-414" value="Seite wird geöffnet mit: &quot;Sie bekommen jeden Moment eine E-Mail auf die von Ihnen angegebene E-Mail-Adresse. Bitte bestätigen Sie dann Ihre E-mail-Adresse, um die Erstellung Ihres Kontos zu vollenden.&amp;nbsp;" style="rounded=1;whiteSpace=wrap;html=1;" vertex="1" parent="WIyWlLk6GJQsqaUBKTNV-1">
          <mxGeometry x="155" y="10780" width="120" height="160" as="geometry" />
        </mxCell>
        <mxCell id="l0oDYleAhtw5hOrFRe71-429" value="" style="edgeStyle=orthogonalEdgeStyle;rounded=0;orthogonalLoop=1;jettySize=auto;html=1;" edge="1" parent="WIyWlLk6GJQsqaUBKTNV-1" source="l0oDYleAhtw5hOrFRe71-416" target="l0oDYleAhtw5hOrFRe71-424">
          <mxGeometry relative="1" as="geometry" />
        </mxCell>
        <mxCell id="l0oDYleAhtw5hOrFRe71-416" value="E-Mail NICHT erhalten" style="shape=hexagon;perimeter=hexagonPerimeter2;whiteSpace=wrap;html=1;fixedSize=1;" vertex="1" parent="WIyWlLk6GJQsqaUBKTNV-1">
          <mxGeometry x="275" y="10950" width="130" height="80" as="geometry" />
        </mxCell>
        <mxCell id="l0oDYleAhtw5hOrFRe71-418" value="" style="rounded=1;whiteSpace=wrap;html=1;" vertex="1" parent="WIyWlLk6GJQsqaUBKTNV-1">
          <mxGeometry x="195" y="10970" width="40" height="40" as="geometry" />
        </mxCell>
        <mxCell id="l0oDYleAhtw5hOrFRe71-422" value="" style="edgeStyle=orthogonalEdgeStyle;rounded=0;orthogonalLoop=1;jettySize=auto;html=1;" edge="1" parent="WIyWlLk6GJQsqaUBKTNV-1" target="l0oDYleAhtw5hOrFRe71-421">
          <mxGeometry relative="1" as="geometry">
            <mxPoint x="195" y="10990" as="sourcePoint" />
          </mxGeometry>
        </mxCell>
        <mxCell id="l0oDYleAhtw5hOrFRe71-423" value="" style="edgeStyle=orthogonalEdgeStyle;rounded=0;orthogonalLoop=1;jettySize=auto;html=1;" edge="1" parent="WIyWlLk6GJQsqaUBKTNV-1" target="l0oDYleAhtw5hOrFRe71-416">
          <mxGeometry relative="1" as="geometry">
            <mxPoint x="235" y="10990" as="sourcePoint" />
          </mxGeometry>
        </mxCell>
        <mxCell id="l0oDYleAhtw5hOrFRe71-419" value="" style="shape=umlDestroy;whiteSpace=wrap;html=1;strokeWidth=3;rounded=1;" vertex="1" parent="WIyWlLk6GJQsqaUBKTNV-1">
          <mxGeometry x="200" y="10975" width="30" height="30" as="geometry" />
        </mxCell>
        <mxCell id="l0oDYleAhtw5hOrFRe71-421" value="E-Mail erhalten" style="shape=hexagon;perimeter=hexagonPerimeter2;whiteSpace=wrap;html=1;fixedSize=1;" vertex="1" parent="WIyWlLk6GJQsqaUBKTNV-1">
          <mxGeometry x="30" y="10950" width="130" height="80" as="geometry" />
        </mxCell>
        <mxCell id="l0oDYleAhtw5hOrFRe71-430" value="" style="edgeStyle=orthogonalEdgeStyle;rounded=0;orthogonalLoop=1;jettySize=auto;html=1;entryX=0.5;entryY=0;entryDx=0;entryDy=0;" edge="1" parent="WIyWlLk6GJQsqaUBKTNV-1" source="l0oDYleAhtw5hOrFRe71-424" target="l0oDYleAhtw5hOrFRe71-426">
          <mxGeometry relative="1" as="geometry" />
        </mxCell>
        <mxCell id="l0oDYleAhtw5hOrFRe71-424" value="Mit Klicken auf &quot;E-Mail nicht erhalten? Erneut anfordern!&quot;" style="rounded=1;whiteSpace=wrap;html=1;" vertex="1" parent="WIyWlLk6GJQsqaUBKTNV-1">
          <mxGeometry x="280" y="11060" width="120" height="70" as="geometry" />
        </mxCell>
        <mxCell id="l0oDYleAhtw5hOrFRe71-434" value="" style="edgeStyle=orthogonalEdgeStyle;rounded=0;orthogonalLoop=1;jettySize=auto;html=1;" edge="1" parent="WIyWlLk6GJQsqaUBKTNV-1" source="l0oDYleAhtw5hOrFRe71-425" target="l0oDYleAhtw5hOrFRe71-433">
          <mxGeometry relative="1" as="geometry" />
        </mxCell>
        <mxCell id="l0oDYleAhtw5hOrFRe71-425" value="E-Mail NICHT erhalten" style="shape=hexagon;perimeter=hexagonPerimeter2;whiteSpace=wrap;html=1;fixedSize=1;" vertex="1" parent="WIyWlLk6GJQsqaUBKTNV-1">
          <mxGeometry x="440" y="11230" width="130" height="80" as="geometry" />
        </mxCell>
        <mxCell id="l0oDYleAhtw5hOrFRe71-426" value="" style="rounded=1;whiteSpace=wrap;html=1;" vertex="1" parent="WIyWlLk6GJQsqaUBKTNV-1">
          <mxGeometry x="320" y="11160" width="40" height="40" as="geometry" />
        </mxCell>
        <mxCell id="l0oDYleAhtw5hOrFRe71-431" value="" style="edgeStyle=orthogonalEdgeStyle;rounded=0;orthogonalLoop=1;jettySize=auto;html=1;" edge="1" parent="WIyWlLk6GJQsqaUBKTNV-1" target="l0oDYleAhtw5hOrFRe71-428">
          <mxGeometry relative="1" as="geometry">
            <mxPoint x="340" y="11200" as="sourcePoint" />
          </mxGeometry>
        </mxCell>
        <mxCell id="l0oDYleAhtw5hOrFRe71-427" value="" style="shape=umlDestroy;whiteSpace=wrap;html=1;strokeWidth=3;rounded=1;" vertex="1" parent="WIyWlLk6GJQsqaUBKTNV-1">
          <mxGeometry x="325" y="11165" width="30" height="30" as="geometry" />
        </mxCell>
        <mxCell id="l0oDYleAhtw5hOrFRe71-428" value="E-Mail erhalten" style="shape=hexagon;perimeter=hexagonPerimeter2;whiteSpace=wrap;html=1;fixedSize=1;" vertex="1" parent="WIyWlLk6GJQsqaUBKTNV-1">
          <mxGeometry x="275" y="11230" width="130" height="80" as="geometry" />
        </mxCell>
        <mxCell id="l0oDYleAhtw5hOrFRe71-432" value="" style="endArrow=classic;html=1;entryX=0.5;entryY=0;entryDx=0;entryDy=0;exitX=1;exitY=0.5;exitDx=0;exitDy=0;" edge="1" parent="WIyWlLk6GJQsqaUBKTNV-1" source="l0oDYleAhtw5hOrFRe71-426" target="l0oDYleAhtw5hOrFRe71-425">
          <mxGeometry width="50" height="50" relative="1" as="geometry">
            <mxPoint x="365" y="11240" as="sourcePoint" />
            <mxPoint x="415" y="11190" as="targetPoint" />
            <Array as="points">
              <mxPoint x="505" y="11180" />
            </Array>
          </mxGeometry>
        </mxCell>
        <mxCell id="l0oDYleAhtw5hOrFRe71-436" value="" style="edgeStyle=orthogonalEdgeStyle;rounded=0;orthogonalLoop=1;jettySize=auto;html=1;" edge="1" parent="WIyWlLk6GJQsqaUBKTNV-1" source="l0oDYleAhtw5hOrFRe71-433" target="l0oDYleAhtw5hOrFRe71-435">
          <mxGeometry relative="1" as="geometry" />
        </mxCell>
        <mxCell id="l0oDYleAhtw5hOrFRe71-433" value="auf Wartezeit hinweisen" style="rounded=1;whiteSpace=wrap;html=1;" vertex="1" parent="WIyWlLk6GJQsqaUBKTNV-1">
          <mxGeometry x="445" y="11340" width="120" height="70" as="geometry" />
        </mxCell>
        <mxCell id="l0oDYleAhtw5hOrFRe71-441" value="" style="edgeStyle=orthogonalEdgeStyle;rounded=0;orthogonalLoop=1;jettySize=auto;html=1;" edge="1" parent="WIyWlLk6GJQsqaUBKTNV-1" source="l0oDYleAhtw5hOrFRe71-435" target="l0oDYleAhtw5hOrFRe71-437">
          <mxGeometry relative="1" as="geometry" />
        </mxCell>
        <mxCell id="l0oDYleAhtw5hOrFRe71-435" value="Feld wurde geöffnet in dem man die E-Mail Adresse ändern kann" style="shape=hexagon;perimeter=hexagonPerimeter2;whiteSpace=wrap;html=1;fixedSize=1;" vertex="1" parent="WIyWlLk6GJQsqaUBKTNV-1">
          <mxGeometry x="432.5" y="11440" width="145" height="80" as="geometry" />
        </mxCell>
        <mxCell id="l0oDYleAhtw5hOrFRe71-442" value="" style="edgeStyle=orthogonalEdgeStyle;rounded=0;orthogonalLoop=1;jettySize=auto;html=1;" edge="1" parent="WIyWlLk6GJQsqaUBKTNV-1" source="l0oDYleAhtw5hOrFRe71-437" target="l0oDYleAhtw5hOrFRe71-438">
          <mxGeometry relative="1" as="geometry" />
        </mxCell>
        <mxCell id="l0oDYleAhtw5hOrFRe71-437" value="E-Mail Adresse wird geändert" style="rounded=1;whiteSpace=wrap;html=1;" vertex="1" parent="WIyWlLk6GJQsqaUBKTNV-1">
          <mxGeometry x="445" y="11550" width="120" height="70" as="geometry" />
        </mxCell>
        <mxCell id="l0oDYleAhtw5hOrFRe71-438" value="E-Mail wird an neue E-Mail Adresse geschickt" style="shape=hexagon;perimeter=hexagonPerimeter2;whiteSpace=wrap;html=1;fixedSize=1;" vertex="1" parent="WIyWlLk6GJQsqaUBKTNV-1">
          <mxGeometry x="432.5" y="11650" width="145" height="80" as="geometry" />
        </mxCell>
        <mxCell id="l0oDYleAhtw5hOrFRe71-440" value="" style="edgeStyle=orthogonalEdgeStyle;rounded=0;orthogonalLoop=1;jettySize=auto;html=1;" edge="1" parent="WIyWlLk6GJQsqaUBKTNV-1" source="l0oDYleAhtw5hOrFRe71-439" target="l0oDYleAhtw5hOrFRe71-437">
          <mxGeometry relative="1" as="geometry" />
        </mxCell>
        <mxCell id="l0oDYleAhtw5hOrFRe71-439" value="Überschreibung der neuen E-Mail Adresse in der Datenbank" style="text;html=1;strokeColor=none;fillColor=none;align=center;verticalAlign=middle;whiteSpace=wrap;rounded=0;" vertex="1" parent="WIyWlLk6GJQsqaUBKTNV-1">
          <mxGeometry x="615" y="11555" width="110" height="60" as="geometry" />
        </mxCell>
        <mxCell id="l0oDYleAhtw5hOrFRe71-444" value="" style="rounded=1;whiteSpace=wrap;html=1;" vertex="1" parent="WIyWlLk6GJQsqaUBKTNV-1">
          <mxGeometry x="320" y="11760" width="40" height="40" as="geometry" />
        </mxCell>
        <mxCell id="l0oDYleAhtw5hOrFRe71-445" value="" style="shape=umlDestroy;whiteSpace=wrap;html=1;strokeWidth=3;rounded=1;" vertex="1" parent="WIyWlLk6GJQsqaUBKTNV-1">
          <mxGeometry x="325" y="11765" width="30" height="30" as="geometry" />
        </mxCell>
        <mxCell id="l0oDYleAhtw5hOrFRe71-446" value="" style="endArrow=classic;html=1;exitX=0.5;exitY=1;exitDx=0;exitDy=0;entryX=0.5;entryY=0;entryDx=0;entryDy=0;" edge="1" parent="WIyWlLk6GJQsqaUBKTNV-1" source="l0oDYleAhtw5hOrFRe71-428" target="l0oDYleAhtw5hOrFRe71-444">
          <mxGeometry width="50" height="50" relative="1" as="geometry">
            <mxPoint x="465" y="11570" as="sourcePoint" />
            <mxPoint x="515" y="11520" as="targetPoint" />
          </mxGeometry>
        </mxCell>
        <mxCell id="l0oDYleAhtw5hOrFRe71-448" value="" style="endArrow=classic;html=1;exitX=0.5;exitY=1;exitDx=0;exitDy=0;entryX=1;entryY=0.5;entryDx=0;entryDy=0;" edge="1" parent="WIyWlLk6GJQsqaUBKTNV-1" source="l0oDYleAhtw5hOrFRe71-438" target="l0oDYleAhtw5hOrFRe71-444">
          <mxGeometry width="50" height="50" relative="1" as="geometry">
            <mxPoint x="465" y="11570" as="sourcePoint" />
            <mxPoint x="515" y="11520" as="targetPoint" />
            <Array as="points">
              <mxPoint x="505" y="11780" />
            </Array>
          </mxGeometry>
        </mxCell>
        <mxCell id="l0oDYleAhtw5hOrFRe71-449" value="" style="rounded=1;whiteSpace=wrap;html=1;" vertex="1" parent="WIyWlLk6GJQsqaUBKTNV-1">
          <mxGeometry x="215" y="11800" width="40" height="40" as="geometry" />
        </mxCell>
        <mxCell id="l0oDYleAhtw5hOrFRe71-450" value="" style="shape=umlDestroy;whiteSpace=wrap;html=1;strokeWidth=3;rounded=1;" vertex="1" parent="WIyWlLk6GJQsqaUBKTNV-1">
          <mxGeometry x="220" y="11805" width="30" height="30" as="geometry" />
        </mxCell>
        <mxCell id="l0oDYleAhtw5hOrFRe71-451" value="" style="endArrow=classic;html=1;exitX=0.5;exitY=1;exitDx=0;exitDy=0;entryX=0;entryY=0.5;entryDx=0;entryDy=0;" edge="1" parent="WIyWlLk6GJQsqaUBKTNV-1" source="l0oDYleAhtw5hOrFRe71-421" target="l0oDYleAhtw5hOrFRe71-449">
          <mxGeometry width="50" height="50" relative="1" as="geometry">
            <mxPoint x="195" y="11570" as="sourcePoint" />
            <mxPoint x="245" y="11520" as="targetPoint" />
            <Array as="points">
              <mxPoint x="95" y="11820" />
            </Array>
          </mxGeometry>
        </mxCell>
        <mxCell id="l0oDYleAhtw5hOrFRe71-452" value="" style="endArrow=classic;html=1;exitX=0.5;exitY=1;exitDx=0;exitDy=0;entryX=1;entryY=0.5;entryDx=0;entryDy=0;" edge="1" parent="WIyWlLk6GJQsqaUBKTNV-1" source="l0oDYleAhtw5hOrFRe71-444" target="l0oDYleAhtw5hOrFRe71-449">
          <mxGeometry width="50" height="50" relative="1" as="geometry">
            <mxPoint x="195" y="11750" as="sourcePoint" />
            <mxPoint x="245" y="11700" as="targetPoint" />
            <Array as="points">
              <mxPoint x="340" y="11820" />
            </Array>
          </mxGeometry>
        </mxCell>
        <mxCell id="l0oDYleAhtw5hOrFRe71-459" value="" style="edgeStyle=orthogonalEdgeStyle;rounded=0;orthogonalLoop=1;jettySize=auto;html=1;" edge="1" parent="WIyWlLk6GJQsqaUBKTNV-1" source="l0oDYleAhtw5hOrFRe71-453" target="l0oDYleAhtw5hOrFRe71-455">
          <mxGeometry relative="1" as="geometry" />
        </mxCell>
        <mxCell id="l0oDYleAhtw5hOrFRe71-453" value="Link wird gedrückt" style="shape=hexagon;perimeter=hexagonPerimeter2;whiteSpace=wrap;html=1;fixedSize=1;" vertex="1" parent="WIyWlLk6GJQsqaUBKTNV-1">
          <mxGeometry x="170" y="11970" width="130" height="80" as="geometry" />
        </mxCell>
        <mxCell id="l0oDYleAhtw5hOrFRe71-458" value="" style="edgeStyle=orthogonalEdgeStyle;rounded=0;orthogonalLoop=1;jettySize=auto;html=1;" edge="1" parent="WIyWlLk6GJQsqaUBKTNV-1" source="l0oDYleAhtw5hOrFRe71-454" target="l0oDYleAhtw5hOrFRe71-453">
          <mxGeometry relative="1" as="geometry" />
        </mxCell>
        <mxCell id="l0oDYleAhtw5hOrFRe71-454" value="Link (in E-Mail) kann jetzt zur Vollendung des Kundenkontos gedrückt werden" style="rounded=1;whiteSpace=wrap;html=1;" vertex="1" parent="WIyWlLk6GJQsqaUBKTNV-1">
          <mxGeometry x="175" y="11870" width="120" height="70" as="geometry" />
        </mxCell>
        <mxCell id="l0oDYleAhtw5hOrFRe71-460" value="" style="edgeStyle=orthogonalEdgeStyle;rounded=0;orthogonalLoop=1;jettySize=auto;html=1;" edge="1" parent="WIyWlLk6GJQsqaUBKTNV-1" source="l0oDYleAhtw5hOrFRe71-455" target="l0oDYleAhtw5hOrFRe71-456">
          <mxGeometry relative="1" as="geometry" />
        </mxCell>
        <mxCell id="l0oDYleAhtw5hOrFRe71-455" value="Kunde wird zurück zur Website geführt (mit Hilfe des Links)" style="rounded=1;whiteSpace=wrap;html=1;" vertex="1" parent="WIyWlLk6GJQsqaUBKTNV-1">
          <mxGeometry x="175" y="12080" width="120" height="70" as="geometry" />
        </mxCell>
        <mxCell id="l0oDYleAhtw5hOrFRe71-461" value="" style="edgeStyle=orthogonalEdgeStyle;rounded=0;orthogonalLoop=1;jettySize=auto;html=1;" edge="1" parent="WIyWlLk6GJQsqaUBKTNV-1" source="l0oDYleAhtw5hOrFRe71-456" target="l0oDYleAhtw5hOrFRe71-457">
          <mxGeometry relative="1" as="geometry" />
        </mxCell>
        <mxCell id="l0oDYleAhtw5hOrFRe71-456" value="Kunde ist zurück auf Website von Schifferstadt" style="shape=hexagon;perimeter=hexagonPerimeter2;whiteSpace=wrap;html=1;fixedSize=1;" vertex="1" parent="WIyWlLk6GJQsqaUBKTNV-1">
          <mxGeometry x="170" y="12180" width="130" height="80" as="geometry" />
        </mxCell>
        <mxCell id="l0oDYleAhtw5hOrFRe71-464" value="" style="edgeStyle=orthogonalEdgeStyle;rounded=0;orthogonalLoop=1;jettySize=auto;html=1;" edge="1" parent="WIyWlLk6GJQsqaUBKTNV-1" source="l0oDYleAhtw5hOrFRe71-457" target="l0oDYleAhtw5hOrFRe71-462">
          <mxGeometry relative="1" as="geometry" />
        </mxCell>
        <mxCell id="l0oDYleAhtw5hOrFRe71-457" value="&quot;Glückwunsch. Ihr Kundenkonto bei der Schifferstadt wurde erfolgreich erstellt. Ab sofort können Sie sich einfach anmelden &amp;amp; die erforderlichen Formulare werden für Sie automatisch ausgefüllt&quot; - Feld erscheint" style="rounded=1;whiteSpace=wrap;html=1;" vertex="1" parent="WIyWlLk6GJQsqaUBKTNV-1">
          <mxGeometry x="152.5" y="12290" width="165" height="130" as="geometry" />
        </mxCell>
        <mxCell id="l0oDYleAhtw5hOrFRe71-465" value="" style="edgeStyle=orthogonalEdgeStyle;rounded=0;orthogonalLoop=1;jettySize=auto;html=1;" edge="1" parent="WIyWlLk6GJQsqaUBKTNV-1" source="l0oDYleAhtw5hOrFRe71-462" target="l0oDYleAhtw5hOrFRe71-463">
          <mxGeometry relative="1" as="geometry" />
        </mxCell>
        <mxCell id="l0oDYleAhtw5hOrFRe71-462" value="Button &quot;Zurück zur Ummeldungsseite&quot; wird dunkel" style="shape=hexagon;perimeter=hexagonPerimeter2;whiteSpace=wrap;html=1;fixedSize=1;" vertex="1" parent="WIyWlLk6GJQsqaUBKTNV-1">
          <mxGeometry x="170" y="12450" width="130" height="80" as="geometry" />
        </mxCell>
        <mxCell id="l0oDYleAhtw5hOrFRe71-467" value="" style="edgeStyle=orthogonalEdgeStyle;rounded=0;orthogonalLoop=1;jettySize=auto;html=1;" edge="1" parent="WIyWlLk6GJQsqaUBKTNV-1" source="l0oDYleAhtw5hOrFRe71-463" target="l0oDYleAhtw5hOrFRe71-466">
          <mxGeometry relative="1" as="geometry" />
        </mxCell>
        <mxCell id="l0oDYleAhtw5hOrFRe71-463" value="Button führt zurück auf die Ummeldungsseite" style="rounded=1;whiteSpace=wrap;html=1;" vertex="1" parent="WIyWlLk6GJQsqaUBKTNV-1">
          <mxGeometry x="175" y="12560" width="120" height="70" as="geometry" />
        </mxCell>
        <mxCell id="l0oDYleAhtw5hOrFRe71-466" value="Zurück auf &quot;Ummeldungs&quot; page" style="shape=hexagon;perimeter=hexagonPerimeter2;whiteSpace=wrap;html=1;fixedSize=1;" vertex="1" parent="WIyWlLk6GJQsqaUBKTNV-1">
          <mxGeometry x="170" y="12660" width="130" height="80" as="geometry" />
        </mxCell>
      </root>
    </mxGraphModel>
  </diagram>
</mxfile>
